<?xml version="1.0" encoding="utf-8" ?>
<svg xmlns="http://www.w3.org/2000/svg" width="1024" height="1024" viewBox="0 0 1024 1024"><defs><linearGradient id="gradient_0" gradientUnits="userSpaceOnUse" x1="443.66467" y1="634.77362" x2="311.67822" y2="185.45703"><stop offset="0" stop-color="#613DDE"/><stop offset="1" stop-color="#AD70FD"/></linearGradient></defs><path fill="url(#gradient_0)" d="M289.073 183.942C291.977 182.443 294.112 181.616 297.439 181.593C307.825 181.52 318.271 181.544 328.659 181.541L390.406 181.503C461.952 180.956 533.501 180.842 605.048 181.16L720.432 181.025L750.372 181.008C756.176 181.005 765.775 180.725 771.158 181.807C768.081 186.143 763.611 190.298 759.816 194.128C747.099 206.959 734.226 219.496 721.715 232.538L602.989 355.115L566.292 391.996C561.291 396.966 555.343 402.247 550.666 407.234C549.79 408.182 548.608 409.364 547.87 410.377C557.356 417.532 569.08 428.113 578.299 435.96L629.927 479.51L699.575 538.929C710.673 548.194 721.65 557.604 732.503 567.156C738.312 572.174 745.696 578.247 751.145 583.508C731.96 584.185 711.224 583.769 691.879 583.781L588.633 583.817L547.158 583.788C541.483 583.788 530.213 583.52 524.929 584.141C524.297 610.219 525.426 825.964 523.883 829.049C522.175 829.655 521.458 829.619 519.85 828.771C501.672 819.191 483.855 807.129 466.383 796.217L370.085 736.37L315.251 702.608C306.072 696.974 294.85 690.829 286.614 684.112C284.344 679.231 285.346 658.721 285.351 652.007L285.309 595.092L285.317 408.174L285.355 279.733L285.287 241.109C285.255 234.179 284.921 224.276 285.427 217.688C285.129 209.458 285.081 199.872 285.445 191.606C285.594 188.224 286.45 185.996 289.073 183.942Z"/><path fill="#B97AFE" d="M289.073 183.942C291.977 182.443 294.112 181.616 297.439 181.593C307.825 181.52 318.271 181.544 328.659 181.541L390.406 181.503C461.952 180.956 533.501 180.842 605.048 181.16L720.432 181.025L750.372 181.008C756.176 181.005 765.775 180.725 771.158 181.807C768.081 186.143 763.611 190.298 759.816 194.128C747.099 206.959 734.226 219.496 721.715 232.538L602.989 355.115L566.292 391.996C561.291 396.966 555.343 402.247 550.666 407.234C542.236 404.946 523.778 387.335 516.214 380.786L466.942 337.981L300.367 193.989C298.162 192.097 290.169 185.848 289.073 183.942Z"/><defs><linearGradient id="gradient_1" gradientUnits="userSpaceOnUse" x1="377.79733" y1="587.13477" x2="518.24823" y2="830.73962"><stop offset="0" stop-color="#1A1698"/><stop offset="1" stop-color="#5D45E0"/></linearGradient></defs><path fill="url(#gradient_1)" d="M377.617 587.931L378.898 587.78C381.186 585.889 381.787 585.383 384.417 584.064C390.692 584.644 402.587 584.408 409.179 584.424L452.764 584.493C460.318 584.502 520.01 585.412 524.147 583.994L524.929 584.141C524.297 610.219 525.426 825.964 523.883 829.049C522.175 829.655 521.458 829.619 519.85 828.771C501.672 819.191 483.855 807.129 466.383 796.217L370.085 736.37L315.251 702.608C306.072 696.974 294.85 690.829 286.614 684.112C305.405 662.294 326.994 641.762 346.572 620.56C356.651 609.646 367.173 598.485 377.617 587.931Z"/><defs><linearGradient id="gradient_2" gradientUnits="userSpaceOnUse" x1="472.29538" y1="483.59521" x2="651.1709" y2="672.02216"><stop offset="0" stop-color="#181594"/><stop offset="1" stop-color="#5841DE"/></linearGradient></defs><path fill="url(#gradient_2)" d="M547.87 410.377C557.356 417.532 569.08 428.113 578.299 435.96L629.927 479.51L699.575 538.929C710.673 548.194 721.65 557.604 732.503 567.156C738.312 572.174 745.696 578.247 751.145 583.508C731.96 584.185 711.224 583.769 691.879 583.781L588.633 583.817L547.158 583.788C541.483 583.788 530.213 583.52 524.929 584.141L524.147 583.994C520.01 585.412 460.318 584.502 452.764 584.493L409.179 584.424C402.587 584.408 390.692 584.644 384.417 584.064C381.787 585.383 381.186 585.889 378.898 587.78L377.617 587.931C417.574 544.542 459.894 502.222 500.563 459.435C515.808 443.396 533.207 426.67 547.87 410.377Z"/><path fill="#392ABB" d="M384.417 584.064L383.466 583.201C382.91 583.333 409.634 583.163 410.504 583.159C445.388 583.008 480.327 582.895 515.215 582.918C517.688 582.919 521.921 583.096 524.147 583.994C520.01 585.412 460.318 584.502 452.764 584.493L409.179 584.424C402.587 584.408 390.692 584.644 384.417 584.064Z"/><path fill="#A96EFD" d="M285.427 217.688C285.129 209.458 285.081 199.872 285.445 191.606C285.594 188.224 286.45 185.996 289.073 183.942C290.169 185.848 298.162 192.097 300.367 193.989C299.204 198.002 299.109 200.771 296.793 204.539C294.984 207.483 294.42 211.356 290.494 208.089L288.847 208.223C287.421 205.459 286.846 197.761 286.498 194.375C285.224 200.266 287.137 212.772 285.427 217.688Z"/></svg>