<?xml version="1.0" encoding="utf-8" ?>
<svg xmlns="http://www.w3.org/2000/svg" width="1024" height="1024" viewBox="0 0 1024 1024"><defs><linearGradient id="gradient_0" gradientUnits="userSpaceOnUse" x1="155.13283" y1="268.83624" x2="358.57465" y2="269.41293"><stop offset="0" stop-color="#8F34D2"/><stop offset="1" stop-color="#D1A0F1"/></linearGradient></defs><path fill="url(#gradient_0)" transform="scale(2 2)" d="M99.2865 222.032C98.0396 202.399 99.1302 183.447 109.759 166.247C118.363 152.324 128.761 146.337 142.14 138.253L255.544 69.3268C261.314 65.8569 278.598 54.3591 283.748 53.1798C289.8 51.7942 294.789 55.5484 299.845 58.2848C314.962 66.4664 330.417 74.5356 345.053 83.5146C362.359 89.402 358.745 114.289 358.731 129.643L358.759 146.515C358.765 149.086 358.886 152.896 358.739 155.409C358.487 157.755 358.733 165.235 358.734 168.1L358.739 193.596C358.737 202.185 358.138 256.847 359.268 258.91C358.108 261.161 359.112 274.146 358.739 277.541L358.829 291.248C358.841 292.647 358.674 294.436 358.739 295.705C359.126 298.149 358.731 318.705 358.127 320.589C353.378 342.54 346.294 354.656 326.624 366.592C321.218 370.06 315.511 373.406 309.943 376.606C308.027 377.786 306.181 378.873 304.481 380.368C293.807 386.595 283.293 393.241 272.721 399.653L202.042 442.48C190.89 449.339 173.477 461.505 160.315 450.677C158.17 449.626 154.98 447.569 152.798 446.264L110.744 421.656C97.4817 413.999 99.2867 399.996 99.2813 386.874L99.2865 352.466C91.7906 351.678 87.6495 350.766 80.8772 347.417C70.2696 341.536 69.1464 336.351 69.1618 325.879L69.1683 269.841C69.1712 263.085 69.4608 254.548 69.1736 247.965C69.1599 242.651 70.4686 240.646 74.9184 237.787C79.3106 234.965 98.9535 225.487 99.2865 222.032Z"/><path fill="#8E29D1" transform="scale(2 2)" d="M99.2865 222.032C98.0396 202.399 99.1302 183.447 109.759 166.247C118.363 152.324 128.761 146.337 142.14 138.253L255.544 69.3268C261.314 65.8569 278.598 54.3591 283.748 53.1798C289.8 51.7942 294.789 55.5484 299.845 58.2848C314.962 66.4664 330.417 74.5356 345.053 83.5146C336.681 83.8029 332.869 83.5276 325.123 89.0943C294.918 105.225 263.197 126.49 233.611 144.449L203.357 162.683C182.992 174.712 170.11 181.954 160.315 205.41C155.039 212.984 155.257 230.541 155.256 239.452L155.279 412.33C155.331 422.832 154.124 435.285 157.588 445.281C158.097 446.752 160.646 449.407 160.315 450.677C158.17 449.626 154.98 447.569 152.798 446.264L110.744 421.656C97.4817 413.999 99.2867 399.996 99.2813 386.874L99.2865 352.466C91.7906 351.678 87.6495 350.766 80.8772 347.417C70.2696 341.536 69.1464 336.351 69.1618 325.879L69.1683 269.841C69.1712 263.085 69.4608 254.548 69.1736 247.965C69.1599 242.651 70.4686 240.646 74.9184 237.787C79.3106 234.965 98.9535 225.487 99.2865 222.032Z"/><defs><linearGradient id="gradient_1" gradientUnits="userSpaceOnUse" x1="113.2037" y1="299.1459" x2="135.94232" y2="299.61749"><stop offset="0" stop-color="#A75CE8"/><stop offset="1" stop-color="#DEA9ED"/></linearGradient></defs><path fill="url(#gradient_1)" transform="scale(2 2)" d="M135.765 247.965L135.784 324.945C135.802 331.884 136.704 337.289 131.324 342.557C124.956 348.791 115.281 351.739 106.587 351.873L106.456 351.805C115.37 350.753 111.411 352.289 113.878 345.932C114.383 344.571 113.995 341.686 113.878 340.088C113.807 339.704 113.86 339.34 113.878 338.932C113.724 337.217 113.334 334.461 113.878 332.896C113.09 326.196 114.052 313.692 114.355 306.833C114.437 304.964 114.076 261.094 113.826 260.445C111.344 259.924 108.098 261.305 105.98 260.488C117.8 258.202 126.732 259.587 135.765 247.965Z"/><path fill="#B23DF9" transform="scale(2 2)" d="M113.878 332.896C114.078 334.588 114.5 337.21 113.931 338.781L113.878 338.932C113.724 337.217 113.334 334.461 113.878 332.896Z"/><defs><linearGradient id="gradient_2" gradientUnits="userSpaceOnUse" x1="117.20432" y1="228.34195" x2="86.627457" y2="263.97821"><stop offset="0" stop-color="#9934F0"/><stop offset="1" stop-color="#D748F5"/></linearGradient></defs><path fill="url(#gradient_2)" transform="scale(2 2)" d="M99.2865 222.032L99.5773 223.139C105.295 222.982 110.096 227.198 114.898 229.969C122.115 234.133 134.497 238.655 135.765 247.965C126.732 259.587 117.8 258.202 105.98 260.488C97.4392 260.649 89.6085 260.288 81.5827 257.085C78.2419 256.19 69.5124 252.221 69.1736 247.965C69.1599 242.651 70.4686 240.646 74.9184 237.787C79.3106 234.965 98.9535 225.487 99.2865 222.032Z"/><defs><linearGradient id="gradient_3" gradientUnits="userSpaceOnUse" x1="80.936714" y1="298.21588" x2="69.300667" y2="298.28418"><stop offset="0" stop-color="#965AC4"/><stop offset="1" stop-color="#D4ABDE"/></linearGradient></defs><path fill="url(#gradient_3)" transform="scale(2 2)" d="M69.1736 247.965C69.5124 252.221 78.2419 256.19 81.5827 257.085C81.3329 265.248 82.4148 345.136 80.8772 347.417C70.2696 341.536 69.1464 336.351 69.1618 325.879L69.1683 269.841C69.1712 263.085 69.4608 254.548 69.1736 247.965Z"/><path fill="#B23DF9" transform="scale(2 2)" d="M113.878 345.932C113.636 344.062 113.21 341.844 113.878 340.088C113.995 341.686 114.383 344.571 113.878 345.932Z"/><path fill="#EDC7F2" transform="scale(2 2)" d="M345.053 83.5146C362.359 89.402 358.745 114.289 358.731 129.643L358.759 146.515C358.765 149.086 358.886 152.896 358.739 155.409C358.487 157.755 358.733 165.235 358.734 168.1L358.739 193.596C358.737 202.185 358.138 256.847 359.268 258.91C358.108 261.161 359.112 274.146 358.739 277.541L358.829 291.248C358.841 292.647 358.674 294.436 358.739 295.705C359.126 298.149 358.731 318.705 358.127 320.589C357.869 319.971 358.894 270.571 358.724 262.778C357.915 225.824 357.34 187.534 358.691 150.601C359.286 134.342 359.638 117.593 355.686 101.694L356.174 100.955C356.128 99.6086 354.664 98.6332 354.635 97.9253C354.51 95.5536 356.012 94.3975 354.785 92.181C347.392 78.8168 335.449 84.1019 325.471 89.279L325.123 89.0943C332.869 83.5276 336.681 83.8029 345.053 83.5146Z"/><path fill="#B23DF9" transform="scale(2 2)" d="M217.848 343.471C212.074 381.303 173.184 373.631 181.024 347.036C182.602 340.509 187.452 334.585 189.394 328.352C198.351 299.608 207.544 270.761 217.902 242.481C223.117 228.243 229.151 211.623 246.511 222.931C253.503 227.251 259.806 242.319 263.568 249.83L280.808 284.741C282.95 289.154 288.257 298.207 289.236 302.438C291.969 314.244 277.432 335.691 264.183 330.11C257.502 328.484 254.558 326.071 250.876 320.589C243.955 326.017 225.108 339.862 217.848 343.471Z"/><defs><linearGradient id="gradient_4" gradientUnits="userSpaceOnUse" x1="175.14992" y1="298.00467" x2="252.78787" y2="290.78027"><stop offset="0" stop-color="#4F00D1"/><stop offset="1" stop-color="#8113FF"/></linearGradient></defs><path fill="url(#gradient_4)" transform="scale(2 2)" d="M217.848 343.471C212.074 381.303 173.184 373.631 181.024 347.036C182.602 340.509 187.452 334.585 189.394 328.352C198.351 299.608 207.544 270.761 217.902 242.481C223.117 228.243 229.151 211.623 246.511 222.931L246.18 223.064C244.777 223.616 242.843 223.859 241.411 224.63C229.61 230.982 220.702 247.12 225.448 260.329C228.519 268.878 245.14 278.19 253.123 285.088C248.092 288.725 229.693 301.337 227.031 304.922C224.976 307.689 217.707 339.878 217.848 343.471Z"/><path fill="#8E29D1" transform="scale(2 2)" d="M250.876 320.589C252.808 319.12 255.139 317.257 257.094 315.89C258.573 322.495 258.953 325.623 264.304 329.926L264.183 330.11C257.502 328.484 254.558 326.071 250.876 320.589Z"/><path fill="#B23DF9" transform="scale(2 2)" d="M301.334 312.695C295.628 310.518 293.779 307.584 293.801 301.434C293.859 285.917 291.615 261.316 297.595 247.255C301.876 237.188 314.182 223.219 325.123 234.682C326.18 236.12 326.959 238.709 327.35 239.165C327.578 245.992 327.349 253.985 327.352 260.928L327.354 276.3C327.35 290.138 327.82 295.872 318.516 306.972C313.043 311.199 308.851 314.706 301.334 312.695Z"/><path fill="#8E29D1" transform="scale(2 2)" d="M301.334 312.695C295.628 310.518 293.779 307.584 293.801 301.434C293.859 285.917 291.615 261.316 297.595 247.255C301.876 237.188 314.182 223.219 325.123 234.682C310.472 234.131 301.737 252.581 301.378 264.979C301.222 270.382 301.633 312.15 301.334 312.695Z"/><path fill="#B23DF9" transform="scale(2 2)" d="M299.822 226.667C278.087 220 293.85 185.884 309.65 182.327C314.548 181.247 317.389 183.436 321.23 185.927C335.603 194.671 320.942 233.261 299.822 226.667Z"/><path fill="#8E29D1" transform="scale(2 2)" d="M299.822 226.667C278.087 220 293.85 185.884 309.65 182.327C314.548 181.247 317.389 183.436 321.23 185.927C319.423 186.6 316.19 186.236 314.403 186.997C302.76 191.958 294.81 207.458 297.259 219.843C297.602 221.575 300.19 225.348 299.822 226.667Z"/><path fill="#8E29D1" transform="scale(2 2)" d="M371.818 250.544C373.711 239.748 377.557 230.985 384.823 222.678C390.327 216.386 400.348 207.794 409.22 209.616C412.723 210.335 432.558 222.95 436.182 225.822C456.573 241.984 422.608 298.795 399.005 280.162C397.01 279.191 393.801 277.299 391.999 276.076C389.701 275.783 380.87 282.178 378.181 283.653C371.758 287.861 365.24 291.635 358.739 295.705C358.674 294.436 358.841 292.647 358.829 291.248L358.739 277.541C359.112 274.146 358.108 261.161 359.268 258.91C361.648 257.205 370.578 251.889 371.818 250.544Z"/><path fill="#E397F3" transform="scale(2 2)" d="M358.739 277.541C366.379 273.018 374.089 266.389 381.431 261.221C384.167 259.295 398.692 248.791 400.073 257.085C402.658 261.924 401.368 269.248 397.127 272.81C398.415 274.406 398.609 276.145 400.073 277.541C399.991 278.921 399.98 278.745 399.202 279.881L399.005 280.162C397.01 279.191 393.801 277.299 391.999 276.076C389.701 275.783 380.87 282.178 378.181 283.653C371.758 287.861 365.24 291.635 358.739 295.705C358.674 294.436 358.841 292.647 358.829 291.248L358.739 277.541Z"/><path fill="#EDC7F2" transform="scale(2 2)" d="M378.181 283.653C380.049 281.048 384.343 279.889 385.488 278.273C388.85 273.466 392.775 268.012 397.894 264.88C403.452 261.481 400.202 261.636 400.073 257.085C402.658 261.924 401.368 269.248 397.127 272.81C398.415 274.406 398.609 276.145 400.073 277.541C399.991 278.921 399.98 278.745 399.202 279.881L399.005 280.162C397.01 279.191 393.801 277.299 391.999 276.076C389.701 275.783 380.87 282.178 378.181 283.653Z"/><path fill="#8E29D1" transform="scale(2 2)" d="M397.127 272.81C398.415 274.406 398.609 276.145 400.073 277.541C399.991 278.921 399.98 278.745 399.202 279.881L399.005 280.162C397.01 279.191 393.801 277.299 391.999 276.076C394.355 275.047 395.214 274.485 397.127 272.81Z"/><path fill="#B23DF9" transform="scale(2 2)" d="M400.073 254.585C403.946 243.695 411.607 230.34 422.658 225.29C424.511 224.444 426.124 224.288 427.947 223.042C431.023 223.357 424.457 225.088 423.964 225.322C409.472 232.199 406.092 242.18 400.077 254.984C402.983 263.049 401.724 266.377 398.292 273.488C398.045 274 399.93 276.976 400.073 277.541C398.609 276.145 398.415 274.406 397.127 272.81C401.368 269.248 402.658 261.924 400.073 257.085C398.692 248.791 384.167 259.295 381.431 261.221C374.089 266.389 366.379 273.018 358.739 277.541C359.112 274.146 358.108 261.161 359.268 258.91C361.648 257.205 370.578 251.889 371.818 250.544C373.794 250.768 379.484 245.892 382.239 244.578C386.87 246.873 395.576 251.413 399.674 254.308L400.073 254.585Z"/><path fill="#8E29D1" transform="scale(2 2)" d="M375.215 145.608C375.371 129.611 395.146 100.998 414.126 107.858C416.295 108.642 420.43 111.127 422.473 112.495C433.296 119.741 443.675 120.966 442.875 136.424C441.987 153.594 428.265 180.091 408.625 179.792C403.385 179.712 398.011 175.212 393.57 172.834C391.244 174.253 388.811 175.787 386.465 177.145C384.417 178.013 379.943 180.851 378.037 182.045L367.468 188.589C366.001 189.487 363.667 190.983 362.165 191.653C360.875 192.488 360.095 192.909 358.739 193.596L358.734 168.1C358.733 165.235 358.487 157.755 358.739 155.409C361.063 154.215 373.855 147.02 375.215 145.608Z"/><path fill="#E397F3" transform="scale(2 2)" d="M382.239 142.993C383.135 143.28 383.57 143.349 384.312 143.944C388.491 145.865 393.113 149.046 397.127 151.4C399.122 152.538 400.626 153.442 401.207 155.829C404.051 167.509 394.315 170.7 393.57 172.834C391.244 174.253 388.811 175.787 386.465 177.145C384.417 178.013 379.943 180.851 378.037 182.045L367.468 188.589C366.001 189.487 363.667 190.983 362.165 191.653C360.875 192.488 360.095 192.909 358.739 193.596L358.734 168.1C358.733 165.235 358.487 157.755 358.739 155.409C361.063 154.215 373.855 147.02 375.215 145.608C377.753 144.364 379.495 143.63 382.239 142.993Z"/><path fill="#B23DF9" transform="scale(2 2)" d="M382.239 142.993C383.135 143.28 383.57 143.349 384.312 143.944C388.491 145.865 393.113 149.046 397.127 151.4C394.722 153.074 393.632 153.258 390.977 155.409C389.144 155.168 385.958 158.116 384.312 158.775C377.252 163.502 366.17 171.551 358.739 175.11C359.022 177.192 358.62 191.93 359.278 192.643C360.416 192.218 361.383 191.386 362.137 191.175L362.165 191.653C360.875 192.488 360.095 192.909 358.739 193.596L358.734 168.1C358.733 165.235 358.487 157.755 358.739 155.409C361.063 154.215 373.855 147.02 375.215 145.608C377.753 144.364 379.495 143.63 382.239 142.993Z"/><path fill="#EE88FA" transform="scale(2 2)" d="M384.312 158.775L384.257 158.45C385.583 157.268 388.746 155.837 389.609 154.793C389.332 146.969 391.248 147.843 384.269 144.218L384.312 143.944C388.491 145.865 393.113 149.046 397.127 151.4C394.722 153.074 393.632 153.258 390.977 155.409C389.144 155.168 385.958 158.116 384.312 158.775Z"/><path fill="#EDC7F2" transform="scale(2 2)" d="M397.127 151.4C399.122 152.538 400.626 153.442 401.207 155.829C404.051 167.509 394.315 170.7 393.57 172.834C391.244 174.253 388.811 175.787 386.465 177.145C389.013 174.012 396.246 171.199 397.833 168.439C396.57 166.607 396.858 157.481 397.172 155.206L397.547 152.441L397.204 152.2C394.707 152.735 393.005 154.83 390.977 155.409C393.632 153.258 394.722 153.074 397.127 151.4Z"/><path fill="#8E29D1" transform="scale(2 2)" d="M349.827 380.368C355.752 372.256 364.642 363.955 374.862 361.836C381.836 360.39 390.901 368.027 396.995 370.898C403.81 374.107 409.751 377.851 410.736 385.974C412.845 403.361 394.423 440.913 375.372 436.047C371.667 434.489 367.54 431.742 364.169 429.662C352.583 422.512 342.678 420.8 342.195 404.522C342.495 400.947 342.429 397.761 343.142 394.154C343.704 393.007 345.288 388.55 345.91 386.986C347.394 384.63 348.092 382.883 349.827 380.368Z"/><defs><linearGradient id="gradient_5" gradientUnits="userSpaceOnUse" x1="320.47607" y1="393.44815" x2="339.80231" y2="372.2854"><stop offset="0" stop-color="#8B24DD"/><stop offset="1" stop-color="#D964FE"/></linearGradient></defs><path fill="url(#gradient_5)" transform="scale(2 2)" d="M309.943 376.606C315.511 373.406 321.218 370.06 326.624 366.592C333.62 370.478 343.139 376.043 349.827 380.368C348.092 382.883 347.394 384.63 345.91 386.986C345.288 388.55 343.704 393.007 343.142 394.154C342.429 397.761 342.495 400.947 342.195 404.522C342.1 403.616 342.173 402.265 342.195 401.32C330.085 395.255 316.504 385.417 304.481 380.368C306.181 378.873 308.027 377.786 309.943 376.606Z"/><path fill="#B23DF9" transform="scale(2 2)" d="M343.142 394.154L342.778 394.116C343.819 391.752 342.675 392.426 342.294 390.887C341.738 388.644 344.684 388.621 345.91 386.986C345.288 388.55 343.704 393.007 343.142 394.154Z"/></svg>