<?xml version="1.0" encoding="utf-8" ?>
<svg xmlns="http://www.w3.org/2000/svg" width="1024" height="1024" viewBox="0 0 1024 1024"><defs><linearGradient id="gradient_0" gradientUnits="userSpaceOnUse" x1="347.09677" y1="715.46295" x2="411.1937" y2="342.56598"><stop offset="0" stop-color="#4220A0"/><stop offset="1" stop-color="#7538DC"/></linearGradient></defs><path fill="url(#gradient_0)" d="M472.289 152.18C497.333 137.961 534.958 112.646 562.664 107.214C572.124 105.36 607.198 130.21 615.654 137.19C634.869 150.978 634.602 159.837 634.133 182.412L634.28 391.25C634.275 402.085 633.238 484.074 634.496 487.341C641.939 487.948 657.148 491.703 663.291 495.484C664.684 494.006 665.575 493.165 667.123 491.848C675.549 484.483 685.443 480.624 696.745 481.455C720.993 483.237 741.732 505.743 756.753 523.17C789.442 561.093 811.027 608.222 825.982 655.604C831.326 672.62 834.795 690.277 841.391 706.893C852.634 733.473 873.354 742.506 870.683 775.937C868.826 799.181 853.768 815.599 836.445 829.939C815.783 847.044 784.329 870.549 759.385 880.884C745.848 888.545 733.466 896.009 717.437 896.55L716.825 896.616C679.166 892.88 677.307 868.952 650.339 850.826C632.238 838.66 605.339 835.068 584.83 823.288C558.046 807.905 538.192 789.475 516.713 767.399C500.573 751.378 483.854 735.885 466.412 721.301C450.774 708.225 437.555 702.668 442.082 679.519C445.558 669.25 449.971 660.523 460.198 655.724C474.783 648.881 488.444 646.563 503.723 652.145C528.559 661.219 551.29 678.628 572.726 693.867C577.497 666.077 563.323 647.959 548.496 626.051C541.009 614.987 533.225 604.534 525.131 593.892C518.228 598.392 510.954 602.393 503.865 606.6C458.316 633.632 411.977 659.114 365.785 685.003L309.05 717.497C301.627 721.73 293.725 725.877 286.374 730.128C273.625 737.5 266.224 738.842 253.655 730.23C238.087 722.543 200.428 702.738 199.551 683.834C199.018 672.342 199.05 656.135 199.025 644.381L198.883 574.332L198.445 433.907L198.227 387.277C198.18 370.434 197.192 351.623 201.649 335.523C205.648 321.082 215.602 302.221 227.04 292.312C234.574 285.786 250.713 277.508 259.93 272.302L315.52 240.919L472.289 152.18Z"/><defs><linearGradient id="gradient_1" gradientUnits="userSpaceOnUse" x1="686.61621" y1="892.2901" x2="595.72748" y2="374.36554"><stop offset="0" stop-color="#AC80FD"/><stop offset="1" stop-color="#DEB0FF"/></linearGradient></defs><path fill="url(#gradient_1)" d="M421.325 431.069C424.289 422.516 429.273 413.393 436.226 407.523C463.508 384.491 481.504 408.5 498.516 427.332C500.882 430.167 505.139 434.721 507.938 437.281L548.435 481.566C553.909 487.51 561.796 496.718 567.426 502.149C579.676 498.674 591.924 496.947 604.144 502.176C605.384 500.863 606.129 500.214 607.519 499.049L612.386 495.035C620.613 490.278 625.039 487.855 634.496 487.341C641.939 487.948 657.148 491.703 663.291 495.484C664.684 494.006 665.575 493.165 667.123 491.848C675.549 484.483 685.443 480.624 696.745 481.455C720.993 483.237 741.732 505.743 756.753 523.17C789.442 561.093 811.027 608.222 825.982 655.604C831.326 672.62 834.795 690.277 841.391 706.893C852.634 733.473 873.354 742.506 870.683 775.937C868.826 799.181 853.768 815.599 836.445 829.939C815.783 847.044 784.329 870.549 759.385 880.884C745.848 888.545 733.466 896.009 717.437 896.55L716.825 896.616C679.166 892.88 677.307 868.952 650.339 850.826C632.238 838.66 605.339 835.068 584.83 823.288C558.046 807.905 538.192 789.475 516.713 767.399C500.573 751.378 483.854 735.885 466.412 721.301C450.774 708.225 437.555 702.668 442.082 679.519C445.558 669.25 449.971 660.523 460.198 655.724C474.783 648.881 488.444 646.563 503.723 652.145C528.559 661.219 551.29 678.628 572.726 693.867C577.497 666.077 563.323 647.959 548.496 626.051C541.009 614.987 533.225 604.534 525.131 593.892C521.086 588.566 516.191 582.329 511.812 577.325C510.119 575.071 508.163 572.9 506.383 570.701C490.889 551.558 474.346 533.208 458.711 514.201C441.647 492.157 416.425 475.923 417.099 446.538C418.638 442.156 419.605 436.182 421.325 431.069Z"/><defs><linearGradient id="gradient_2" gradientUnits="userSpaceOnUse" x1="594.0495" y1="890.66003" x2="601.70593" y2="683.45795"><stop offset="0" stop-color="#7A4CE7"/><stop offset="1" stop-color="#9063FE"/></linearGradient></defs><path fill="url(#gradient_2)" d="M442.082 679.519C449.153 677.01 452.981 675.769 460.162 679.406C468.256 683.506 475.182 689.376 482.445 694.746C520.116 722.477 550.657 758.766 587.831 786.92C616.825 808.879 654.343 812.79 685.06 832.888C706.049 846.621 714.458 875.72 738.899 881.582C743.99 882.803 753.746 880.96 759.385 880.884C745.848 888.545 733.466 896.009 717.437 896.55L716.825 896.616C679.166 892.88 677.307 868.952 650.339 850.826C632.238 838.66 605.339 835.068 584.83 823.288C558.046 807.905 538.192 789.475 516.713 767.399C500.573 751.378 483.854 735.885 466.412 721.301C450.774 708.225 437.555 702.668 442.082 679.519Z"/><path fill="#A16AFD" d="M417.099 446.538C418.638 442.156 419.605 436.182 421.325 431.069C431.313 452.053 457.061 474.044 473.217 491.586C505.804 526.971 536.799 563.154 565.755 601.625C575.989 615.222 588.382 630.43 595.26 646.192C600.256 659.093 600.617 674.46 597.227 687.785C596.274 691.53 591.92 694.873 588.534 696.287C584.219 698.088 575.931 697.78 572.726 693.867C577.497 666.077 563.323 647.959 548.496 626.051C541.009 614.987 533.225 604.534 525.131 593.892C521.086 588.566 516.191 582.329 511.812 577.325C510.119 575.071 508.163 572.9 506.383 570.701C490.889 551.558 474.346 533.208 458.711 514.201C441.647 492.157 416.425 475.923 417.099 446.538Z"/><path fill="#A16AFD" d="M607.519 499.049C610.906 499.389 616.372 499.594 619.249 500.928C634.914 508.188 647.878 520.591 660.712 531.867C664.16 534.897 677.839 547.25 671.983 551.775C668.822 552.228 664.94 549.929 662.58 547.902C650.181 537.253 637.056 527.683 624.204 517.629C617.12 512.087 611.913 506.934 604.144 502.176C605.384 500.863 606.129 500.214 607.519 499.049Z"/><path fill="#A16AFD" d="M667.123 491.848C668.952 492.965 677.77 492.623 682.113 494.583C690.278 498.266 728.333 525.358 724.769 534.666C722.125 536.96 719.252 535.994 716.374 534.552C704.981 528.843 694.681 519.919 684.729 512.019C678.818 507.325 668.013 500.797 663.291 495.484C664.684 494.006 665.575 493.165 667.123 491.848Z"/><path fill="#A16AFD" d="M579.597 513.873C588.557 515.571 623.883 549.878 630.649 558.193C634.422 562.83 635.243 565.688 634.656 571.318C634.505 571.318 634.353 571.336 634.203 571.318C625.183 570.265 587.733 522.921 579.597 513.873Z"/><defs><linearGradient id="gradient_3" gradientUnits="userSpaceOnUse" x1="447.86835" y1="480.46942" x2="503.2886" y2="149.47453"><stop offset="0" stop-color="#6331C8"/><stop offset="1" stop-color="#9144FC"/></linearGradient></defs><path fill="url(#gradient_3)" d="M472.289 152.18C497.333 137.961 534.958 112.646 562.664 107.214C572.124 105.36 607.198 130.21 615.654 137.19C634.869 150.978 634.602 159.837 634.133 182.412L634.28 391.25C634.275 402.085 633.238 484.074 634.496 487.341C625.039 487.855 620.613 490.278 612.386 495.035L607.519 499.049C606.129 500.214 605.384 500.863 604.144 502.176C591.924 496.947 579.676 498.674 567.426 502.149C561.796 496.718 553.909 487.51 548.435 481.566L507.938 437.281C514.629 425.991 518.26 405.08 517.061 392.131C517.188 391.72 517.367 391.203 517.379 390.787C518.176 363.23 499.024 337.749 471.34 333.34C450.012 329.943 431.156 338.53 414.298 350.517C412.977 348.91 414.236 349.723 412.92 348.124C412.399 348.495 411.878 348.867 411.357 349.238C382.396 345.959 353.757 338.702 324.746 335.056C321.135 334.602 316.062 333.997 312.73 332.67C311.985 332.373 308.382 328.786 308.233 327.84L309.821 325.855L309.351 325.3L307.103 325.21C310.681 322.847 314.907 320.482 318.669 318.389C339.708 306.688 360.435 293.833 381.619 282.456L380.852 281.356C381.556 280.311 382.082 279.789 382.228 278.563C380.144 275.244 377.254 278.299 376.412 276.703C374.08 272.276 371.912 276.705 367.832 275.673C366.605 274.358 366.56 271.776 366.297 269.864L366.124 270.281C365.568 269.052 365.677 269.683 366.008 268.33L365.041 267.598C367.173 266.037 376.682 260.889 379.348 259.375L411.332 241.301L522.339 178.279C524.019 173.668 536.106 168.389 535.604 164.111C532.631 162.69 528.207 162.314 526.743 161.435C520.533 157.704 510.46 157.651 505.358 152.927C502.113 149.922 507.631 154.544 504.091 151.64C501.073 153.459 498.154 152.247 494.709 152.042C487.801 151.631 480.512 152.683 474.231 155.69C473.168 156.199 473.404 156.137 472.201 156.014C472.292 154.596 472.299 153.585 472.289 152.18Z"/><defs><linearGradient id="gradient_4" gradientUnits="userSpaceOnUse" x1="494.19659" y1="487.81525" x2="509.46841" y2="137.87639"><stop offset="0" stop-color="#9146E9"/><stop offset="1" stop-color="#C367FF"/></linearGradient></defs><path fill="url(#gradient_4)" d="M472.289 152.18C497.333 137.961 534.958 112.646 562.664 107.214C572.124 105.36 607.198 130.21 615.654 137.19C634.869 150.978 634.602 159.837 634.133 182.412L634.28 391.25C634.275 402.085 633.238 484.074 634.496 487.341C625.039 487.855 620.613 490.278 612.386 495.035C613.166 471.184 612.494 444.016 612.488 419.873L612.89 310.7L612.933 233.418C613.001 217.924 613.363 202.353 612.826 186.908C612.519 178.082 610.146 167.793 600.521 165.209C595.53 163.868 587.474 165.399 582.912 167.863C558.94 180.814 535.493 194.803 511.796 208.262L418.86 261.188C406.546 268.262 393.745 275.073 381.619 282.456L380.852 281.356C381.556 280.311 382.082 279.789 382.228 278.563C380.144 275.244 377.254 278.299 376.412 276.703C374.08 272.276 371.912 276.705 367.832 275.673C366.605 274.358 366.56 271.776 366.297 269.864L366.124 270.281C365.568 269.052 365.677 269.683 366.008 268.33L365.041 267.598C367.173 266.037 376.682 260.889 379.348 259.375L411.332 241.301L522.339 178.279C524.019 173.668 536.106 168.389 535.604 164.111C532.631 162.69 528.207 162.314 526.743 161.435C520.533 157.704 510.46 157.651 505.358 152.927C502.113 149.922 507.631 154.544 504.091 151.64C501.073 153.459 498.154 152.247 494.709 152.042C487.801 151.631 480.512 152.683 474.231 155.69C473.168 156.199 473.404 156.137 472.201 156.014C472.292 154.596 472.299 153.585 472.289 152.18Z"/><path fill="#8439E7" d="M472.289 152.18C497.333 137.961 534.958 112.646 562.664 107.214C572.124 105.36 607.198 130.21 615.654 137.19C606.891 136.302 601.087 135.498 592.9 139.561C571.673 150.636 551.056 162.414 530.142 174.057C527.644 175.448 524.899 177.061 522.339 178.279C524.019 173.668 536.106 168.389 535.604 164.111C532.631 162.69 528.207 162.314 526.743 161.435C520.533 157.704 510.46 157.651 505.358 152.927C502.113 149.922 507.631 154.544 504.091 151.64C501.073 153.459 498.154 152.247 494.709 152.042C487.801 151.631 480.512 152.683 474.231 155.69C473.168 156.199 473.404 156.137 472.201 156.014C472.292 154.596 472.299 153.585 472.289 152.18Z"/><path fill="#A16AFD" d="M592.9 139.561C601.087 135.498 606.891 136.302 615.654 137.19C634.869 150.978 634.602 159.837 634.133 182.412C630.407 182.835 625.781 183.93 622.121 183.146C616.742 181.994 616.589 175.099 614.701 172.305C609.339 164.369 601.713 158.829 596.389 150.178L590.641 148.904C591.575 145.547 594.62 142.243 592.9 139.561Z"/><defs><linearGradient id="gradient_5" gradientUnits="userSpaceOnUse" x1="216.925" y1="716.2171" x2="410.92358" y2="121.15575"><stop offset="0" stop-color="#362287"/><stop offset="1" stop-color="#6232C9"/></linearGradient></defs><path fill="url(#gradient_5)" d="M472.289 152.18C472.299 153.585 472.292 154.596 472.201 156.014C473.404 156.137 473.168 156.199 474.231 155.69C480.512 152.683 487.801 151.631 494.709 152.042C498.154 152.247 501.073 153.459 504.091 151.64C507.631 154.544 502.113 149.922 505.358 152.927C510.46 157.651 520.533 157.704 526.743 161.435C528.207 162.314 532.631 162.69 535.604 164.111C536.106 168.389 524.019 173.668 522.339 178.279L411.332 241.301L379.348 259.375C376.682 260.889 367.173 266.037 365.041 267.598L318.818 293.755C284.884 313.044 260.701 325.195 248.111 366.499C244.075 379.741 244.872 397.184 244.846 411.392L244.969 454.58L244.99 571.731L244.994 661.098C244.994 676.584 244.776 692.057 245.199 707.536C245.465 717.308 248.951 722.058 253.655 730.23C238.087 722.543 200.428 702.738 199.551 683.834C199.018 672.342 199.05 656.135 199.025 644.381L198.883 574.332L198.445 433.907L198.227 387.277C198.18 370.434 197.192 351.623 201.649 335.523C205.648 321.082 215.602 302.221 227.04 292.312C234.574 285.786 250.713 277.508 259.93 272.302L315.52 240.919L472.289 152.18Z"/><path fill="#8439E7" d="M414.298 350.517C431.156 338.53 450.012 329.943 471.34 333.34C499.024 337.749 518.176 363.23 517.379 390.787C517.367 391.203 517.188 391.72 517.061 392.131C518.26 405.08 514.629 425.991 507.938 437.281C505.139 434.721 500.882 430.167 498.516 427.332C481.504 408.5 463.508 384.491 436.226 407.523C429.273 413.393 424.289 422.516 421.325 431.069C419.605 436.182 418.638 442.156 417.099 446.538C416.425 475.923 441.647 492.157 458.711 514.201C441.854 524.699 431.229 535.551 408.972 538.493C391.431 540.447 377.31 534.16 366.286 520.32C364.55 519.256 363.394 518.214 362.214 516.561C350.669 500.384 348.11 474.612 351.196 455.647C357.607 416.247 382.343 374.142 414.298 350.517Z"/><defs><linearGradient id="gradient_6" gradientUnits="userSpaceOnUse" x1="471.46194" y1="496.81543" x2="391.96841" y2="372.81717"><stop offset="0" stop-color="#A045FD"/><stop offset="1" stop-color="#C96EFF"/></linearGradient></defs><path fill="url(#gradient_6)" d="M414.298 350.517C431.156 338.53 450.012 329.943 471.34 333.34C499.024 337.749 518.176 363.23 517.379 390.787C517.367 391.203 517.188 391.72 517.061 392.131C518.26 405.08 514.629 425.991 507.938 437.281C505.139 434.721 500.882 430.167 498.516 427.332C500.323 425.399 501.973 423.109 502.394 420.453C503.935 410.737 504.14 399.472 503.918 389.641C503.385 366.118 486.609 351.239 463.16 352.71C439.61 354.187 422.107 368.234 406.696 384.99C384.62 409.674 368.218 446.524 369.88 480.015C370.573 493.979 375.872 509.067 386.716 518.374C393.402 524.112 401.221 526.37 409.54 528.864C409.351 532.01 409.088 535.363 408.972 538.493C391.431 540.447 377.31 534.16 366.286 520.32C364.55 519.256 363.394 518.214 362.214 516.561C350.669 500.384 348.11 474.612 351.196 455.647C357.607 416.247 382.343 374.142 414.298 350.517Z"/><path fill="#8439E7" d="M414.298 350.517C431.156 338.53 450.012 329.943 471.34 333.34C499.024 337.749 518.176 363.23 517.379 390.787C517.367 391.203 517.188 391.72 517.061 392.131C511.631 372.889 506.456 355.631 487.786 344.92C475.65 337.957 460.869 336.74 447.526 340.678C415.939 350.001 390.583 378.646 375.211 406.788C360.545 433.639 349.928 470.014 358.107 500.255C360.347 508.536 363.89 513.557 366.286 520.32C364.55 519.256 363.394 518.214 362.214 516.561C350.669 500.384 348.11 474.612 351.196 455.647C357.607 416.247 382.343 374.142 414.298 350.517Z"/><defs><linearGradient id="gradient_7" gradientUnits="userSpaceOnUse" x1="444.83148" y1="468.26489" x2="401.94507" y2="531.90912"><stop offset="0" stop-color="#6415C6"/><stop offset="1" stop-color="#9037F2"/></linearGradient></defs><path fill="url(#gradient_7)" d="M409.54 528.864C406.363 510.961 405.152 488.973 409.176 471.204C410.151 466.9 414.361 448.72 417.099 446.538C416.425 475.923 441.647 492.157 458.711 514.201C441.854 524.699 431.229 535.551 408.972 538.493C409.088 535.363 409.351 532.01 409.54 528.864Z"/><defs><linearGradient id="gradient_8" gradientUnits="userSpaceOnUse" x1="371.69165" y1="740.13715" x2="394.90012" y2="269.42493"><stop offset="0" stop-color="#6B2DDA"/><stop offset="1" stop-color="#B05AF6"/></linearGradient></defs><path fill="url(#gradient_8)" d="M365.041 267.598L366.008 268.33C365.677 269.683 365.568 269.052 366.124 270.281L366.297 269.864C366.56 271.776 366.605 274.358 367.832 275.673C371.912 276.705 374.08 272.276 376.412 276.703C377.254 278.299 380.144 275.244 382.228 278.563C382.082 279.789 381.556 280.311 380.852 281.356L381.619 282.456C360.435 293.833 339.708 306.688 318.669 318.389C314.907 320.482 310.681 322.847 307.103 325.21C285.945 335.8 274.234 348.933 266.883 371.283C262.94 383.27 264.865 425.194 264.903 440.499L264.971 514.949L265.011 621.57C265.019 641.782 264.764 662.288 265.437 682.453C265.874 695.552 271.747 709.044 287.321 703.471C298.688 699.404 306.906 692.826 317.236 687.03L431.95 621.812C446.176 613.793 460.545 605.777 474.808 597.812C486.527 591.268 500.923 585.071 511.812 577.325C516.191 582.329 521.086 588.566 525.131 593.892C518.228 598.392 510.954 602.393 503.865 606.6C458.316 633.632 411.977 659.114 365.785 685.003L309.05 717.497C301.627 721.73 293.725 725.877 286.374 730.128C273.625 737.5 266.224 738.842 253.655 730.23C248.951 722.058 245.465 717.308 245.199 707.536C244.776 692.057 244.994 676.584 244.994 661.098L244.99 571.731L244.969 454.58L244.846 411.392C244.872 397.184 244.075 379.741 248.111 366.499C260.701 325.195 284.884 313.044 318.818 293.755L365.041 267.598Z"/></svg>