<?xml version="1.0" encoding="utf-8" ?>
<svg xmlns="http://www.w3.org/2000/svg" width="1024" height="1024" viewBox="0 0 1024 1024"><path fill="#A65AE9" d="M274.728 350.26C276.153 347.675 277.949 345.113 280.195 343.161C303.929 322.523 327.248 301.954 349.782 279.995C390.797 240.205 427.145 195.802 458.321 147.926C465.501 136.9 469.588 130.841 481.679 124.98C486.327 122.727 488.659 119.669 494.34 122.007C499.741 124.228 504.292 126.946 509.481 129.526C560.815 156.034 621.239 159.884 674.966 138.067C686.007 133.584 688.993 133.06 699.574 139.121C707.924 143.905 716.199 148.786 724.422 153.814C728.845 156.539 731.734 159.555 732.428 164.813C733.891 175.917 733.426 187.916 733.433 199.108L733.455 247.667L733.483 310.682C733.469 329.112 733.471 347.735 732.211 366.185C727.37 437.108 701.804 505.313 664.895 565.63C645.754 596.912 625.811 621.988 602.903 650.046C602.857 673.133 602.312 698.695 603.044 721.608L567.896 742.606C560.44 747.005 545.46 753.679 543.715 762.546C541.432 774.149 544.102 787.519 542.932 799.217C542.537 797.42 542.578 794.52 542.534 792.594L457.208 843.395C443.84 851.333 430.528 859.498 416.979 867.047C411.025 870.363 403.892 869.692 398.132 866.487C388.086 860.894 378.147 854.396 368.317 848.425L337.026 829.487C313.319 815.146 313.01 817.997 313.06 789.408L313.101 759.606L313.033 655.883C273.779 611.546 271.574 554.967 271.487 499.076L271.429 441.069L271.372 390.168C271.355 378.787 269.86 360.182 274.728 350.26Z"/><path fill="#8131C4" d="M274.728 350.26C274.942 351.377 274.783 352.148 275.902 352.642C289.379 358.6 301.129 368.181 313.756 375.725C315.74 376.91 321.941 381.366 323.823 382.006C322.411 389.904 322.884 401.668 322.904 410.096L322.973 452.448L322.934 526.421C322.922 556.199 321.658 585.124 330.099 613.967C324.106 620.21 317.568 628.043 315.131 636.512L315.432 637.382C342.018 651.641 368.493 671.842 395.21 685.063C404.309 660.439 419.716 654.613 440.776 642.375L482.098 618.124L547.601 580.01C553.47 576.614 580.174 559.782 585.737 559.644C609.595 559.056 601.471 586.753 603.312 601.672C602.422 605.227 602.409 645.704 602.903 650.046C602.857 673.133 602.312 698.695 603.044 721.608L567.896 742.606C560.44 747.005 545.46 753.679 543.715 762.546C541.432 774.149 544.102 787.519 542.932 799.217C542.537 797.42 542.578 794.52 542.534 792.594L457.208 843.395C443.84 851.333 430.528 859.498 416.979 867.047C411.025 870.363 403.892 869.692 398.132 866.487C388.086 860.894 378.147 854.396 368.317 848.425L337.026 829.487C313.319 815.146 313.01 817.997 313.06 789.408L313.101 759.606L313.033 655.883C273.779 611.546 271.574 554.967 271.487 499.076L271.429 441.069L271.372 390.168C271.355 378.787 269.86 360.182 274.728 350.26Z"/><path fill="#662BB2" d="M506.643 658.021C527.286 656.145 528.102 678.995 521.948 692.748C518.4 700.675 515.217 705.417 510.568 712.674C510.381 724.054 510.803 735.491 510.564 746.879C510.311 758.876 504.396 770.444 490.899 769.888C487.553 767.893 486.242 765.503 485.985 761.62C485.27 750.842 485.5 738.807 485.814 728.06C464.059 718.364 471.03 695.103 480.707 678.908C486.488 669.234 495.366 660.661 506.643 658.021Z"/><path fill="#662BB2" d="M274.728 350.26C276.153 347.675 277.949 345.113 280.195 343.161C303.929 322.523 327.248 301.954 349.782 279.995C390.797 240.205 427.145 195.802 458.321 147.926C465.501 136.9 469.588 130.841 481.679 124.98C486.327 122.727 488.659 119.669 494.34 122.007C499.741 124.228 504.292 126.946 509.481 129.526C560.815 156.034 621.239 159.884 674.966 138.067C686.007 133.584 688.993 133.06 699.574 139.121C707.924 143.905 716.199 148.786 724.422 153.814C728.845 156.539 731.734 159.555 732.428 164.813C733.891 175.917 733.426 187.916 733.433 199.108L733.455 247.667L733.483 310.682C733.469 329.112 733.471 347.735 732.211 366.185C727.37 437.108 701.804 505.313 664.895 565.63C645.754 596.912 625.811 621.988 602.903 650.046C602.409 645.704 602.422 605.227 603.312 601.672C657.651 531.799 692.833 448.583 695.337 359.675C695.856 341.246 695.561 322.509 695.548 304.051L695.487 204.46C682.702 208.828 673.519 212.25 660.299 215.624C615.947 226.946 569.284 224.776 527.688 204.658C485.366 268.773 437.471 327.185 376.253 374.318C367.401 381.133 359.304 385.81 359.407 398.249C359.207 406.343 359.173 414.389 359.188 422.496L359.311 463.833C359.333 476.46 359.27 489.106 359.356 501.73C359.557 531.494 358.429 562.297 365.159 591.502C353.358 598.299 340.149 604.971 330.099 613.967C321.658 585.124 322.922 556.199 322.934 526.421L322.973 452.448L322.904 410.096C322.884 401.668 322.411 389.904 323.823 382.006C321.941 381.366 315.74 376.91 313.756 375.725C301.129 368.181 289.379 358.6 275.902 352.642C274.783 352.148 274.942 351.377 274.728 350.26Z"/><defs><linearGradient id="gradient_0" gradientUnits="userSpaceOnUse" x1="539.9599" y1="303.36282" x2="430.03247" y2="165.32947"><stop offset="0" stop-color="#9240D3"/><stop offset="1" stop-color="#A95CED"/></linearGradient></defs><path fill="url(#gradient_0)" d="M274.728 350.26C276.153 347.675 277.949 345.113 280.195 343.161C303.929 322.523 327.248 301.954 349.782 279.995C390.797 240.205 427.145 195.802 458.321 147.926C465.501 136.9 469.588 130.841 481.679 124.98C486.327 122.727 488.659 119.669 494.34 122.007C499.741 124.228 504.292 126.946 509.481 129.526C560.815 156.034 621.239 159.884 674.966 138.067C686.007 133.584 688.993 133.06 699.574 139.121C707.924 143.905 716.199 148.786 724.422 153.814L726.205 156.221L726.098 156.763C716.694 159.763 707.57 163.749 698.212 166.748C651.456 181.729 604.436 181.697 557.825 166.011C553.393 165.11 529.867 154.491 527.445 155.862C516.061 162.312 507.114 179.638 499.768 190.499C459.751 249.661 411.248 302.03 356.093 347.352C344.149 357.167 329.529 367.043 323.823 382.006C321.941 381.366 315.74 376.91 313.756 375.725C301.129 368.181 289.379 358.6 275.902 352.642C274.783 352.148 274.942 351.377 274.728 350.26Z"/><path fill="#CAB4FE" d="M499.43 469.116C488.821 465.707 478.581 467.676 468.826 472.966C445.483 485.624 428.044 511.531 420.006 536.364C412.952 557.264 416.041 579.78 415.434 601.389C415.26 607.615 416.136 616.715 414.389 622.192C410.934 633.029 395.741 639.916 385.767 633.499C380.576 630.851 377.27 628.695 375.716 622.556C373.253 612.819 374.672 601.707 374.395 591.695C373.355 554.102 375.037 521.062 394.719 487.591C410.322 461.057 434.106 435.819 464.697 426.637C497.342 417.404 536.019 431.781 544.402 467.104C548.666 485.075 546.317 502.987 546.994 521.252C547.277 529.708 547.222 538.807 546.826 547.22C546.444 555.337 540.733 560.341 533.352 562.314C526.626 564.111 523.286 562.019 517.482 561.478C512.524 558.992 507.631 555.803 503.701 551.879C498.368 530.255 506.498 501.908 500.503 480.094C499.802 477.545 497.688 472.534 497.649 470.211L499.43 469.116Z"/><path fill="#A97EEA" d="M499.43 469.116C521.547 478.415 517.512 506.271 517.562 525.735C517.592 537.557 517.725 549.687 517.482 561.478C512.524 558.992 507.631 555.803 503.701 551.879C498.368 530.255 506.498 501.908 500.503 480.094C499.802 477.545 497.688 472.534 497.649 470.211L499.43 469.116Z"/><path fill="#9644D9" d="M672.607 639.472C677.87 631.52 704.098 617.565 713.639 611.667C726.651 603.623 741.683 593.587 755.552 587.623C760.899 585.323 778.509 597.49 783.976 600.834C788.193 602.851 791.483 605.161 793.086 609.753C795.041 615.351 794.861 691.168 793.814 701.262C793.489 704.399 792.46 707.427 791.019 710.225C789.416 713.339 787.36 716.239 784.593 718.417C779.755 722.225 774.003 725.258 768.729 728.425L742.175 744.373C731.182 750.97 717.919 759.364 706.358 765.257C703.083 766.927 697.85 764.419 694.719 762.809C688.982 758.887 677.422 752.607 671.013 748.804C674.274 745.197 684.46 741.638 690.309 734.223C691.491 724.349 691.027 701.095 690.759 690.524C688.325 687.848 677.374 680.995 673.669 679.648C671.763 678.955 671.205 679.652 669.52 680.474C668.021 670.96 667.459 647.839 672.607 639.472Z"/><path fill="#A65AE9" d="M672.607 639.472C677.87 631.52 704.098 617.565 713.639 611.667C726.651 603.623 741.683 593.587 755.552 587.623C760.899 585.323 778.509 597.49 783.976 600.834C783.441 602.225 769.057 610.425 766.755 611.815L725.336 637.002C718.668 641.046 711.864 645.183 705.149 649.158C702.841 650.524 699.468 654.869 698.117 655.839C693.638 652.787 674.162 642.519 672.607 639.472Z"/><path fill="#8131C4" d="M672.607 639.472C674.162 642.519 693.638 652.787 698.117 655.839C696.921 657.501 694.891 660.765 694.813 662.817C693.556 695.935 696.204 729.714 694.719 762.809C688.982 758.887 677.422 752.607 671.013 748.804C674.274 745.197 684.46 741.638 690.309 734.223C691.491 724.349 691.027 701.095 690.759 690.524C688.325 687.848 677.374 680.995 673.669 679.648C671.763 678.955 671.205 679.652 669.52 680.474C668.021 670.96 667.459 647.839 672.607 639.472Z"/><path fill="#662BB2" d="M767.304 650.042C790.63 649.173 778.346 690.801 755.21 698.656C730.637 700.254 745.379 658.191 767.304 650.042Z"/><path fill="#9644D9" d="M669.52 680.474C671.205 679.652 671.763 678.955 673.669 679.648C677.374 680.995 688.325 687.848 690.759 690.524C691.027 701.095 691.491 724.349 690.309 734.223C684.46 741.638 674.274 745.197 671.013 748.804C667.668 751.141 664.071 753.265 660.59 755.323C650.302 761.404 649.876 762.385 639.567 757.405C634.565 760.057 619.021 768.515 615.239 771.796C613.045 780.859 611.755 797.029 597.721 794.879C594.202 794.339 588.883 787.918 586.092 789.295C580.46 799.66 586.024 811.006 574.054 817.989C568.727 821.097 565.531 824.42 559.89 818.926C550.342 813.505 543.482 811.276 542.932 799.217C544.102 787.519 541.432 774.149 543.715 762.546C545.46 753.679 560.44 747.005 567.896 742.606L603.044 721.608C624.542 708.495 648.81 694.375 669.52 680.474Z"/><path fill="#A65AE9" d="M669.52 680.474C671.205 679.652 671.763 678.955 673.669 679.648C677.374 680.995 688.325 687.848 690.759 690.524L604.616 743.456C592.458 750.979 578.826 758.517 567.49 767.195C564.854 769.213 563.4 773.83 562.586 776.953C560.02 789.853 561.612 805.038 560.874 818.267C560.546 818.487 560.218 818.706 559.89 818.926C550.342 813.505 543.482 811.276 542.932 799.217C544.102 787.519 541.432 774.149 543.715 762.546C545.46 753.679 560.44 747.005 567.896 742.606L603.044 721.608C624.542 708.495 648.81 694.375 669.52 680.474Z"/></svg>