<?xml version="1.0" encoding="utf-8" ?><svg xmlns="http://www.w3.org/2000/svg" xmlns:xlink="http://www.w3.org/1999/xlink" width="1024" height="1024" viewBox="0 0 1024 1024"><defs><linearGradient id="gradient_0" gradientUnits="userSpaceOnUse" x1="91.243896" y1="145.03685" x2="421.24298" y2="158.53419"><stop offset="0" stop-color="#7432CA"/><stop offset="1" stop-color="#AA8CE0"/></linearGradient></defs><path fill="url(#gradient_0)" transform="scale(2 2)" d="M256.442 47.9291C260.231 50.5011 264.113 52.78 267.998 55.1943L408.776 143.035C413.028 145.738 419.786 149.481 423.031 152.924C427.382 157.894 426.219 161.559 426.219 167.813L426.221 342.115C426.221 347.181 427.738 357.83 423.562 360.879C419.291 363.997 398.781 376.868 395.195 376.981C391.449 375.154 386.871 372.294 383.302 370.125L310.794 413.079C302.817 417.783 293.472 423.838 285.528 428.24C285.565 431.856 286.165 440.057 283.942 442.281C280.991 445.235 258.974 458.467 256.442 458.684C252.087 457.58 231.174 444.144 227.315 441.018C224.668 438.874 225.154 433.151 225.175 429.986C222.101 427.916 218.175 425.701 214.961 423.744L143.872 379.575C138.846 376.521 133.563 373.418 128.706 370.125C126.15 371.681 117.188 378.448 114.935 376.981C110.023 374.693 90.1733 363.179 87.0226 359.6C84.5827 356.828 85.7456 340.257 85.7448 336.331L85.7421 172.515C85.7408 167.373 84.1901 155.386 88.7333 152.205C93.4888 148.332 99.3813 145.155 104.583 141.84L233.373 61.5346C239.14 57.981 250.7 50.0774 256.442 47.9291Z"/><defs><linearGradient id="gradient_1" gradientUnits="userSpaceOnUse" x1="261.0076" y1="288.65173" x2="79.897362" y2="322.01044"><stop offset="0" stop-color="#3F187C"/><stop offset="1" stop-color="#5540AB"/></linearGradient></defs><path fill="url(#gradient_1)" transform="scale(2 2)" d="M114.935 376.981C110.023 374.693 90.1733 363.179 87.0226 359.6C84.5827 356.828 85.7456 340.257 85.7448 336.331L85.7421 172.515C85.7408 167.373 84.1901 155.386 88.7333 152.205C101.236 155.072 129.437 175.793 141.715 183.619L249.98 250.708C251.61 251.718 254.156 254.469 255.429 255.887C256.753 260.07 256.451 275.606 256.45 280.598L256.437 416.421C256.436 420.497 256.693 458.115 256.442 458.684C252.087 457.58 231.174 444.144 227.315 441.018C224.668 438.874 225.154 433.151 225.175 429.986C222.101 427.916 218.175 425.701 214.961 423.744L143.872 379.575C138.846 376.521 133.563 373.418 128.706 370.125C126.15 371.681 117.188 378.448 114.935 376.981Z"/><path fill="#8534D2" transform="scale(2 2)" d="M114.935 362.247C117.69 363.052 126.858 368.155 128.706 370.125C126.15 371.681 117.188 378.448 114.935 376.981C115.287 376.246 114.896 364.231 114.935 362.247Z"/><path fill="#9E9CE3" transform="scale(2 2)" d="M103.903 240.094L103.909 204.953C103.908 202.271 102.126 183.767 107.576 184.668C110.313 185.121 133.598 201.017 137.541 203.463L206.095 246.677C214.109 251.756 222.532 256.302 230.451 261.562C237.763 266.419 235.246 279.035 235.248 287.445L235.239 321.917L235.478 322.098C237.453 323.568 240.683 324.728 241.122 326.74C240.11 337.347 241.242 352.464 241.122 363.505C239.793 365.344 238.863 366.181 237.002 367.457L237.002 367.457C236.802 369.443 236.993 376.456 236.995 378.712L237.008 403.126C237.008 405.715 237.203 412.709 236.436 414.864L235.972 415.04C232.733 414.563 223.349 407.892 220.014 405.77L120.535 343.659C102.757 332.42 103.894 336.234 103.892 315.675L103.903 296.189C100.511 293.073 92.8876 288.629 88.7333 285.906L88.7288 263.005C88.7274 259.224 88.5209 254.221 88.7333 250.604C90.5758 248.899 91.8777 248.567 94.1981 247.827C95.1002 246.352 93.2366 243.785 95.2104 241.661C96.966 240.385 98.7696 239.136 100.546 237.886C101.766 238.765 102.583 239.368 103.903 240.094Z"/><path fill="#8F8DE7" transform="scale(2 2)" d="M94.1981 247.827C97.3516 248.943 121.411 263.472 122.993 265.2C122.782 268.65 122.966 273.952 122.977 277.614L122.993 300.549C121.575 301.539 120.212 302.454 118.762 303.396L118.428 303.31C117.142 305.309 107.032 297.347 103.903 296.189C100.511 293.073 92.8876 288.629 88.7333 285.906L88.7288 263.005C88.7274 259.224 88.5209 254.221 88.7333 250.604C90.5758 248.899 91.8777 248.567 94.1981 247.827Z"/><path fill="#AAAAEB" transform="scale(2 2)" d="M122.993 265.2C122.782 268.65 122.966 273.952 122.977 277.614L122.993 300.549C121.575 301.539 120.212 302.454 118.762 303.396L118.428 303.31C118.132 291.947 118.449 279.127 118.428 267.631C119.798 267.172 121.806 266.021 122.993 265.2Z"/><path fill="#CECFF6" transform="scale(2 2)" d="M94.1981 247.827C97.3516 248.943 121.411 263.472 122.993 265.2C121.806 266.021 119.798 267.172 118.428 267.631C112.607 263.786 92.6763 251.099 88.7333 250.604C90.5758 248.899 91.8777 248.567 94.1981 247.827Z"/><path fill="#8F8DE7" transform="scale(2 2)" d="M225.175 316.185C227.179 317.322 233.731 321.39 235.239 321.917L235.478 322.098C237.453 323.568 240.683 324.728 241.122 326.74C240.11 337.347 241.242 352.464 241.122 363.505C239.793 365.344 238.863 366.181 237.002 367.457L237.002 367.457C234.6 366.611 223.205 358.946 221.025 356.622C220.642 344.321 221.341 331.205 221.025 318.772L225.175 316.185Z"/><path fill="#9E9CE3" transform="scale(2 2)" d="M241.122 326.74C240.11 337.347 241.242 352.464 241.122 363.505C239.793 365.344 238.863 366.181 237.002 367.457C235.545 359.177 237.403 339.199 237.002 329.557C238.408 328.51 239.49 327.354 241.122 326.74Z"/><path fill="#CECFF6" transform="scale(2 2)" d="M225.175 316.185C227.179 317.322 233.731 321.39 235.239 321.917L235.478 322.098C237.453 323.568 240.683 324.728 241.122 326.74C239.49 327.354 238.408 328.51 237.002 329.557C231.814 325.708 226.451 322.317 221.025 318.772L225.175 316.185Z"/><path fill="#8F8DE7" transform="scale(2 2)" d="M94.1981 247.827C95.1002 246.352 93.2366 243.785 95.2104 241.661C103.296 247.091 118.194 256.573 127.034 261.115C126.761 270.494 126.053 289.687 127.034 298.765C126.303 299.698 124.132 300.408 122.993 300.549L122.977 277.614C122.966 273.952 122.782 268.65 122.993 265.2C121.411 263.472 97.3516 248.943 94.1981 247.827Z"/><path fill="#CECFF6" transform="scale(2 2)" d="M100.546 237.886C101.766 238.765 102.583 239.368 103.903 240.094C107.476 243.117 131.179 256.852 131.638 258.702L131.194 259.346C130.074 259.819 128.051 260.596 127.034 261.115C118.194 256.573 103.296 247.091 95.2104 241.661C96.966 240.385 98.7696 239.136 100.546 237.886Z"/><path fill="#AAAAEB" transform="scale(2 2)" d="M131.194 259.346C132.345 263.118 130.776 289.861 131.194 296.189C129.396 297.586 128.597 297.722 127.034 298.765C126.053 289.687 126.761 270.494 127.034 261.115C128.051 260.596 130.074 259.819 131.194 259.346Z"/><path fill="#8534D2" transform="scale(2 2)" d="M255.429 255.887C258.974 253.071 266.077 249.421 270.228 246.89L417.005 155.514C418.851 154.364 420.883 153.306 423.031 152.924C427.382 157.894 426.219 161.559 426.219 167.813L426.221 342.115C426.221 347.181 427.738 357.83 423.562 360.879C419.291 363.997 398.781 376.868 395.195 376.981C391.449 375.154 386.871 372.294 383.302 370.125L310.794 413.079C302.817 417.783 293.472 423.838 285.528 428.24C285.565 431.856 286.165 440.057 283.942 442.281C280.991 445.235 258.974 458.467 256.442 458.684C256.693 458.115 256.436 420.497 256.437 416.421L256.45 280.598C256.451 275.606 256.753 260.07 255.429 255.887Z"/><path fill="#5D0CB1" transform="scale(2 2)" d="M383.302 370.125C384.97 368.498 392.642 364.345 395.195 363.505C395.179 367.755 395.04 372.767 395.195 376.981C391.449 375.154 386.871 372.294 383.302 370.125Z"/><path fill="#B873ED" transform="scale(2 2)" d="M414.483 177.294C414.647 177.64 414.483 207.588 414.483 211.328L414.482 321.88C414.48 346.335 417.162 339.653 395.823 352.732L284.242 420.095C281.113 421.945 279.351 423.512 275.843 421.464C271.938 417.346 273.496 406.12 273.501 400.353L273.496 265.2C276.324 261.469 299.948 248.365 305.796 244.692L379.583 198.911C391.222 191.727 402.748 184.336 414.483 177.294Z"/><defs><linearGradient id="gradient_2" gradientUnits="userSpaceOnUse" x1="372.6871" y1="245.21864" x2="356.76941" y2="245.76567"><stop offset="0" stop-color="#7113C9"/><stop offset="1" stop-color="#B52AFD"/></linearGradient></defs><path fill="url(#gradient_2)" transform="scale(2 2)" d="M380.136 224.076C383.584 221.606 389.06 216.213 392.292 221.248C392.293 225.142 392.569 255.236 391.94 256.549L391.21 256.738C390.057 256.074 388.292 254.585 386.996 253.721C385.071 251.999 380.963 249.932 380.136 247.827C377.992 248.381 376.987 249.552 375.24 250.604C373.702 251.705 371.001 253.27 369.287 254.36L356.942 262.313L356.942 237.886C362.318 234.982 369.354 229.77 374.466 227.612C375.658 226.59 378.67 224.921 380.136 224.076Z"/><path fill="#8534D2" transform="scale(2 2)" d="M380.136 224.076C383.584 221.606 389.06 216.213 392.292 221.248C392.293 225.142 392.569 255.236 391.94 256.549L391.21 256.738C390.057 256.074 388.292 254.585 386.996 253.721C385.071 251.999 380.963 249.932 380.136 247.827C380.438 247.26 380.135 226.844 380.136 224.076Z"/><path fill="#5D0CB1" transform="scale(2 2)" d="M380.136 224.076C380.135 226.844 380.438 247.26 380.136 247.827C377.992 248.381 376.987 249.552 375.24 250.604C374.438 250.503 373.234 251.222 372.262 251.606C371.767 250.873 371.971 247.365 372.224 246.735C372.875 245.115 372.253 229.165 372.137 229.416C373.111 228.897 374.177 228.522 374.466 227.612C375.658 226.59 378.67 224.921 380.136 224.076Z"/><path fill="#8534D2" transform="scale(2 2)" d="M322.751 260.139C325.91 257.397 334.573 250.956 335.116 259.01C335.323 269.956 334.458 281.085 335.507 291.99C335.248 292.285 335.405 292.207 335.055 292.26C332.413 291.052 330.932 290.07 328.512 288.442C326.853 287.436 323.857 285.793 322.751 284.242C321.371 284.67 320.523 285.208 319.271 285.906C315.501 289.026 305.802 295.143 301.421 297.472C301.126 290.687 301.413 281.788 301.421 274.874C304.136 271.879 313.051 266.278 316.873 263.611L322.751 260.139Z"/><defs><linearGradient id="gradient_3" gradientUnits="userSpaceOnUse" x1="318.06522" y1="280.74002" x2="301.49017" y2="279.79175"><stop offset="0" stop-color="#7118C5"/><stop offset="1" stop-color="#AF22FF"/></linearGradient></defs><path fill="url(#gradient_3)" transform="scale(2 2)" d="M301.421 274.874C304.136 271.879 313.051 266.278 316.873 263.611C320.581 268.529 314.912 287.111 319.271 285.906C315.501 289.026 305.802 295.143 301.421 297.472C301.126 290.687 301.413 281.788 301.421 274.874Z"/><path fill="#5D0CB1" transform="scale(2 2)" d="M322.751 260.139L322.777 276.449C322.779 278.344 322.911 282.5 322.751 284.242C321.371 284.67 320.523 285.208 319.271 285.906C314.912 287.111 320.581 268.529 316.873 263.611L322.751 260.139Z"/><defs><linearGradient id="gradient_4" gradientUnits="userSpaceOnUse" x1="379.52295" y1="312.07382" x2="357.25385" y2="311.92468"><stop offset="0" stop-color="#5907B5"/><stop offset="1" stop-color="#B730FF"/></linearGradient></defs><path fill="url(#gradient_4)" transform="scale(2 2)" d="M380.136 293.446C383.781 290.717 392.079 285.038 392.262 293.904C392.301 295.813 392.668 324.222 392.292 324.686C390.661 324.084 388.341 322.171 386.996 321.917C385.059 320.12 381.466 317.768 380.136 316.185C374.779 318.257 362.069 327.308 356.942 330.639C356.93 324.811 355.187 309.819 360.092 306.341C366.294 301.945 373.577 297.259 380.136 293.446Z"/><path fill="#8534D2" transform="scale(2 2)" d="M380.136 293.446C383.781 290.717 392.079 285.038 392.262 293.904C392.301 295.813 392.668 324.222 392.292 324.686C390.661 324.084 388.341 322.171 386.996 321.917C385.059 320.12 381.466 317.768 380.136 316.185C380.278 315.848 380.16 295.5 380.136 293.446Z"/><path fill="#8534D2" transform="scale(2 2)" d="M322.751 329.557C337.131 318.872 335.076 328.751 335.072 340.716L335.055 362.247C333.37 361.81 329.919 358.987 328.512 357.877C326.285 356.662 323.663 355.393 321.961 353.542C320.33 354.222 319.307 354.983 317.873 355.653C316.565 356.842 303.35 364.808 301.421 365.786C301.432 358.825 301.248 351.436 301.421 344.536C304.748 340.259 311.362 336.925 316.123 333.706C318.431 332.401 320.536 331.004 322.751 329.557Z"/><defs><linearGradient id="gradient_5" gradientUnits="userSpaceOnUse" x1="316.41891" y1="350.00613" x2="301.49808" y2="349.00507"><stop offset="0" stop-color="#7413D0"/><stop offset="1" stop-color="#B625FE"/></linearGradient></defs><path fill="url(#gradient_5)" transform="scale(2 2)" d="M301.421 344.536C304.748 340.259 311.362 336.925 316.123 333.706C318.205 340.004 315.076 353.457 316.392 356.069C316.942 355.874 317.311 355.614 317.873 355.653C316.565 356.842 303.35 364.808 301.421 365.786C301.432 358.825 301.248 351.436 301.421 344.536Z"/><path fill="#5D0CB1" transform="scale(2 2)" d="M316.123 333.706C318.431 332.401 320.536 331.004 322.751 329.557C322.759 333.089 323.531 352.053 321.961 353.542C320.33 354.222 319.307 354.983 317.873 355.653C317.311 355.614 316.942 355.874 316.392 356.069C315.076 353.457 318.205 340.004 316.123 333.706Z"/><path fill="#B650F5" transform="scale(2 2)" d="M386.996 321.917C388.341 322.171 390.661 324.084 392.292 324.686C381.33 330.306 366.82 339.74 356.942 346.8C356.724 344.153 356.772 342.435 356.942 339.792C361.322 335.847 381.817 323.243 386.996 321.917Z"/><path fill="#B650F5" transform="scale(2 2)" d="M328.512 357.877C329.919 358.987 333.37 361.81 335.055 362.247C332.59 362.074 305.434 379.807 301.421 382.294C301.479 379.768 301.425 376.991 301.421 374.447C308.742 370.527 321.726 363.006 328.512 357.877Z"/><path fill="#B650F5" transform="scale(2 2)" d="M386.996 253.721C388.292 254.585 390.057 256.074 391.21 256.738C382.256 260.739 366.082 272.899 356.942 278.493C356.724 275.958 356.822 273.915 356.942 271.37C366.087 263.729 376.744 259.161 386.996 253.721Z"/><path fill="#B650F5" transform="scale(2 2)" d="M328.512 288.442C330.932 290.07 332.413 291.052 335.055 292.26C323.314 297.402 312.467 307.947 301.421 312.746C301.242 310.185 301.281 308.446 301.421 305.888C309.088 300.487 322.396 294.869 328.512 288.442Z"/><defs><linearGradient id="gradient_6" gradientUnits="userSpaceOnUse" x1="117.5205" y1="152.60413" x2="395.97946" y2="149.89101"><stop offset="0" stop-color="#5C19A3"/><stop offset="1" stop-color="#9C56D6"/></linearGradient></defs><path fill="url(#gradient_6)" transform="scale(2 2)" d="M255.429 64.6802C256.313 64.7474 276.949 77.6336 279.213 79.0091L385.228 144.864C388.289 146.791 394.48 150.216 396.978 152.205C386.079 158.164 374.719 166.218 364.084 172.741L280.612 223.956C273.482 228.31 265.15 233.118 258.427 237.886C257.214 238.283 256.935 238.258 255.871 237.589L184.925 193.445C162.469 179.467 138.276 165.498 116.665 150.678C122.806 147.779 131.196 141.627 137.138 137.934L231.665 79.1456C239.228 74.483 248.213 69.634 255.429 64.6802Z"/></svg>