<?xml version="1.0" encoding="utf-8" ?><svg xmlns="http://www.w3.org/2000/svg" xmlns:xlink="http://www.w3.org/1999/xlink" width="1024" height="1024" viewBox="0 0 1024 1024"><path fill="#252123" d="M454.744 491.172C489.753 503.552 543.88 501.184 578.94 489.596C583.083 502.007 586.888 513.963 589.043 526.908C597.932 580.308 590.027 636.345 586.052 689.96C585.031 705.15 584.238 720.354 583.67 735.567C583.466 741.393 583.651 750.026 583.183 755.379C576.075 757.955 571.837 758.96 564.252 759.968C562.504 760.201 556.55 760.914 555.118 761.256C548.45 763.118 527.949 762.253 520.859 761.429C516.979 760.381 511.644 759.799 507.493 758.901C500.475 757.383 495.891 755.596 489.34 752.981C487.761 744.917 487.833 727.534 488.04 718.689C488.546 697.049 488.564 672.161 490.636 650.757C491.934 650.827 493.229 650.934 494.52 651.077C496.342 651.273 500.709 651.942 502.132 653.011C507.871 657.32 512.858 668.162 516.22 674.433C518.565 678.807 519.773 683.727 522.775 687.477C523.547 687.816 523.922 687.834 524.781 687.62C532.426 685.717 528.842 667.813 527.675 663.232C525.099 653.118 517.281 629.125 508.559 623.682C499.887 624.35 492.976 624.098 484.423 622.537C484.348 612.005 484.867 601.477 485.976 591.003C470.721 599.83 458.213 604.135 440.987 607.494C441.578 610.503 441.772 611.182 441.407 614.304C436.091 626.785 434.207 631.773 427.451 643.896C421.378 654.373 413.656 668.354 402.727 673.902C394.521 672.848 385.165 669.252 377.215 665.873C353.97 655.993 327.47 647.625 307.27 632.208C299.552 626.317 294.765 615.455 294.103 605.996C293.075 591.986 298.152 578.214 308.028 568.223C330.304 545.478 390.799 529.977 420.754 518.868C430.685 515.186 444.926 509.84 452.186 501.825C456.108 497.494 455.105 496.05 454.744 491.172Z"/><path fill="#252123" d="M449.611 236.587C441.312 239.332 432.297 238.958 424.254 235.533C405.613 227.401 394.739 207.054 403.654 188.306C410.709 173.467 422.899 169.011 437.5 166.227C444.058 163.774 441.801 152.221 444.794 146.984C455.142 128.879 483.815 128.835 500.713 136.148C512.29 141.159 518.62 147.68 523.202 159.091C543.661 148.262 567.608 158.364 579.274 176.959C581.728 180.871 583.162 184.281 584.854 188.569C586.473 189.342 588.797 190.268 590.021 191.475L590.858 191.292C595.368 190.264 600.003 187.919 604.822 186.828C618.774 183.667 634.388 184.46 646.893 191.81C667.49 203.915 669.44 231.675 657.24 250.434C650.254 261.319 641.032 271.791 644.624 285.795C647.314 296.281 652.977 307.511 646.73 318.136C640.009 329.569 618.632 335.431 606.309 331.239C602.898 330.079 600.856 328.658 596.936 328.011C592.969 329.586 589.122 330.989 585.555 333.364C578.615 331.185 573.064 329.864 566.039 328.347C555.996 322.636 551.046 314.485 546.627 304.233C544.594 305.06 538.571 307.371 537.009 308.483C522.518 312.774 510.324 314.79 495.065 311.176C493.989 310.497 490.006 309.03 488.59 308.579C465.002 301.076 451.501 277.527 449.226 253.933C448.726 248.743 450.268 241.786 449.611 236.587Z"/><path fill="#D2D1D1" d="M466.751 200.491C469.187 204.899 471.485 208.875 475.391 212.151C492.867 226.81 519.864 215.208 538.022 208.171C535.663 223.994 541.623 237.83 558.575 241.57C558.55 245.896 559.106 249.301 562.133 252.55C565.079 255.712 570.229 255.691 572.649 252.12C578.033 244.174 584.025 234.07 594.214 243.255C601.084 249.448 600.869 258.97 594.356 265.449C590.901 268.916 586.179 270.818 581.285 270.714C578.924 270.675 577.267 270.448 575.03 269.622C570.086 286.726 561.662 294.791 546.627 304.233C544.594 305.06 538.571 307.371 537.009 308.483C522.518 312.774 510.324 314.79 495.065 311.176C493.989 310.497 490.006 309.03 488.59 308.579C465.002 301.076 451.501 277.527 449.226 253.933C448.726 248.743 450.268 241.786 449.611 236.587C449.579 234.702 450.85 232.089 451.355 230.179C454.379 218.763 458.251 208.937 466.751 200.491Z"/><path fill="#252123" d="M466.369 216.584C468.124 216.614 471.291 217.218 472.76 218.013C489.527 227.089 477.122 246.401 471.729 258.536C470.872 260.464 470.577 260.72 471.254 262.308C473.42 263.949 476.302 264.618 478.954 265.47L478.654 266.087C464.501 269.308 468.152 258.815 472.054 251.049L466.736 252.358C463.338 252.104 461.159 251.84 458.792 249.218C455.552 245.629 451.899 239.75 456.378 235.671L457.307 235.754C459.035 237.806 459.451 242.719 460.866 244.752C468.91 256.309 477.537 241.958 476.771 233.076C476.029 224.478 474.145 221.921 465.434 221.97C462.598 221.986 461.181 222.7 459.232 220.629L459.389 219.898C461.805 217.525 463.048 217.216 466.369 216.584Z"/><path fill="#252123" d="M493.76 239.015C502.305 237.854 507.014 243.491 499.499 249.5C498.667 250.165 496.511 248.783 495.485 248.272L495.162 248.744C501.632 258.051 510.053 254.433 517.102 248.012C518.446 248.972 518.579 248.88 519.234 250.344C519.088 251.723 518.648 252.65 517.546 253.662C508.436 262.03 490.864 259.508 490.755 245.024C490.735 242.45 491.835 240.742 493.76 239.015Z"/><path fill="#252123" d="M504.503 224.633C509.033 224.349 519.565 227.905 519.785 233.092C518.929 235.005 519.574 234.345 518.061 235.382C515.11 235.538 512.741 231.843 509.646 230.185C500.76 228.444 501.672 232.16 493.55 232.383C492.831 232.403 492.88 232.141 492.435 231.392C493.84 225.617 499.253 225.768 504.503 224.633Z"/><path fill="#252123" d="M500.896 281.821C502.406 282.107 502.163 282.137 503.55 282.921C504.026 283.699 504.613 284.442 504.117 285.343C500.804 291.362 494.545 291.838 489.225 290.551C487.386 289.601 485.882 288.539 486.052 286.235C491.465 283.048 492.766 291.418 500.896 281.821Z"/><path fill="#252123" d="M468.517 235.479C476.238 235.22 474.552 241.117 470.285 244.83C464.201 244.201 462.064 238.499 468.517 235.479Z"/><path fill="#A6A5A5" d="M585.621 196.001C587.053 193.924 587.896 192.032 590.021 191.475C592.453 195.389 609.866 203.71 611.833 206.361C611.112 207.824 611.667 207.299 610.006 207.869C604.544 207.202 594.787 199.367 590.741 195.589L592.471 201.372C595.691 209.944 600.922 211.233 604.163 216.468L603.694 217.33C596.375 220.031 587.669 201.358 585.621 196.001Z"/><path fill="#A6A5A5" d="M495.065 311.176C510.324 314.79 522.518 312.774 537.009 308.483L536.966 322.195C538.376 327.028 541.95 329.957 547.019 330.22C552.929 329.992 560.119 329.056 566.039 328.347C573.064 329.864 578.615 331.185 585.555 333.364C590.509 336.308 595.301 339.516 599.911 342.973C603.862 345.924 632.525 369.506 632.969 371.521C633.041 371.847 633.05 372.185 633.091 372.517L632.287 374.492C629.258 380.471 616.252 396.498 615.115 400.478C611.793 405.463 605.085 412.474 599.511 414.743C591.06 417.525 588.122 405.083 583.089 404.736C580.782 404.556 580.253 404.223 578.048 403.346C578.057 429.362 582.661 456.206 586.258 481.912C587.054 487.602 583.682 487.701 578.94 489.596C543.88 501.184 489.753 503.552 454.744 491.172C453.682 490.372 445.938 486.651 443.992 485.62C444.2 480.14 446.246 471.609 447.298 465.92C450.228 450.083 453.217 434.311 454.858 418.262C455.255 414.382 456.318 406.685 456.134 403.117C454.296 401.304 454.158 400.834 454.079 398.512L453.643 397.423C446.857 398.396 428.774 412.255 425.715 412.145C424.974 411.408 424.095 410.254 423.209 410.15C418.127 410.052 417.838 408.076 415.649 404.01C411.964 394.601 403.113 381.31 400.944 374.914L399.676 370.91C399.05 368.835 401.743 366.226 403.295 365.063C420.317 352.32 439.234 337.166 459.828 331.084C466.267 329.182 477.028 330.668 483.464 331.172C488.063 330.497 490.309 329.494 493.852 326.636C494.52 322.556 494.777 315.502 495.065 311.176Z"/><path fill="#D2D1D1" d="M495.065 311.176C510.324 314.79 522.518 312.774 537.009 308.483L536.966 322.195C538.376 327.028 541.95 329.957 547.019 330.22C546.364 339.892 545.643 350.381 537.634 357.253C525.091 368.014 501.592 367.204 490.85 354.159C485.253 347.375 483.704 339.557 483.464 331.172C488.063 330.497 490.309 329.494 493.852 326.636C494.52 322.556 494.777 315.502 495.065 311.176Z"/><path fill="#252123" d="M495.065 311.176C510.324 314.79 522.518 312.774 537.009 308.483L536.966 322.195C525.989 315.096 509.904 314.208 497.868 318.857C496.987 321.005 495.476 325.403 493.852 326.636C494.52 322.556 494.777 315.502 495.065 311.176Z"/><path fill="#252123" d="M599.511 414.743C602.208 408.063 623.933 380.546 630.31 374.985C631.299 374.123 631.199 374.355 632.287 374.492C629.258 380.471 616.252 396.498 615.115 400.478C611.793 405.463 605.085 412.474 599.511 414.743Z"/><path fill="#252123" d="M399.676 370.91C405.814 375.531 420.976 402.23 423.209 410.15C418.127 410.052 417.838 408.076 415.649 404.01C411.964 394.601 403.113 381.31 400.944 374.914L399.676 370.91Z"/><path fill="#252123" d="M574.543 382.504C577.297 387.318 582.369 399.407 583.089 404.736C580.782 404.556 580.253 404.223 578.048 403.346C577.059 397.879 574.913 387.608 574.543 382.504Z"/><path fill="#030303" d="M454.079 398.512C455.704 397.177 456.34 396.589 457.736 395.02C457.544 397.832 457.66 400.804 456.134 403.117C454.296 401.304 454.158 400.834 454.079 398.512Z"/><path fill="#D2D1D1" d="M251.152 384.965C247.502 382.071 234.016 370.481 240.132 365.663C246.568 364.671 271.993 383.415 275.563 390.176C276.399 390.357 277.24 390.516 278.085 390.651C302.314 394.618 351.673 395.385 376.346 389.169C383.289 387.419 394.83 379.293 400.944 374.914C403.113 381.31 411.964 394.601 415.649 404.01C409.117 407.715 393.042 417.155 386.492 418.941C363.47 425.219 330.566 418.918 306.907 416.263C295.267 414.957 286.417 412.837 274.609 413.049C259.55 417.367 242.676 418.072 227.105 417.927C221.074 417.871 207.806 421.983 210.716 411.673C209.781 411.387 208.725 411.345 207.73 411.241C208.901 410.299 210.645 410.251 212.241 409.99C209.833 409.407 206.84 409.616 205.309 407.821L205.688 406.467L205.716 405.578C205.066 404.855 205.045 404.893 204.588 403.955L201.834 403.437C201.185 403.225 200.098 402.092 199.507 401.557C200.642 400.99 202.276 400.328 203.475 399.803C203.058 398.913 202.778 398.208 202.425 397.289C204.048 391.027 218.705 392.891 223.615 393.3C227.971 393.356 233.647 393.259 237.891 393.535C244.747 392.054 248.408 391.975 251.152 384.965Z"/><path fill="#D2D1D1" d="M224.265 398.919C227.094 398.974 232.62 398.795 234.772 400.536L234.903 401.448C236.226 404.499 236.523 401.869 236.564 404.225C230.447 407.821 215.002 404.742 205.688 406.467L205.716 405.578C205.066 404.855 205.045 404.893 204.588 403.955L201.834 403.437C201.185 403.225 200.098 402.092 199.507 401.557C200.642 400.99 202.276 400.328 203.475 399.803C207.988 398.841 218.798 399.254 224.265 398.919Z"/><defs><linearGradient id="gradient_0" gradientUnits="userSpaceOnUse" x1="218.85094" y1="401.65939" x2="219.08301" y2="398.68677"><stop offset="0" stop-color="#28262A"/><stop offset="1" stop-color="black"/></linearGradient></defs><path fill="url(#gradient_0)" d="M224.265 398.919C227.094 398.974 232.62 398.795 234.772 400.536L234.903 401.448C226.461 401.477 208.035 398.208 201.834 403.437C201.185 403.225 200.098 402.092 199.507 401.557C200.642 400.99 202.276 400.328 203.475 399.803C207.988 398.841 218.798 399.254 224.265 398.919Z"/><path fill="#030303" d="M204.588 403.955C207.76 403.689 234.938 403.493 236.564 404.225C230.447 407.821 215.002 404.742 205.688 406.467L205.716 405.578C205.066 404.855 205.045 404.893 204.588 403.955Z"/><defs><linearGradient id="gradient_1" gradientUnits="userSpaceOnUse" x1="257.9183" y1="373.61688" x2="246.11284" y2="397.51385"><stop offset="0" stop-color="black"/><stop offset="1" stop-color="#333032"/></linearGradient></defs><path fill="url(#gradient_1)" d="M251.152 384.965C247.502 382.071 234.016 370.481 240.132 365.663C246.568 364.671 271.993 383.415 275.563 390.176C272.194 388.961 269.35 385.228 266.374 383.517C260.1 379.91 248.091 370.231 241.789 367.902L241.2 368.207C242.781 374.666 246.699 376.827 250.949 381.39C258.624 389.632 247.489 393.921 240.871 395.336C239.996 394.875 238.771 394.071 237.891 393.535C244.747 392.054 248.408 391.975 251.152 384.965Z"/><path fill="#030303" d="M212.241 409.99L215.651 410.345C221.592 411.015 232.14 407 240.474 409.421C230.94 412.511 225.525 410.411 216.339 413.31C214.534 414.311 213.907 414.225 213.18 415.728C214.442 416.876 216.466 416.825 218.092 416.671C227.708 415.76 237.409 415.683 247.058 415.58C253.942 415.506 268.41 410.854 274.609 413.049C259.55 417.367 242.676 418.072 227.105 417.927C221.074 417.871 207.806 421.983 210.716 411.673C209.781 411.387 208.725 411.345 207.73 411.241C208.901 410.299 210.645 410.251 212.241 409.99Z"/><path fill="#252123" d="M203.475 399.803C203.058 398.913 202.778 398.208 202.425 397.289C204.048 391.027 218.705 392.891 223.615 393.3C220.247 395.53 218.697 394.011 214.889 394.922C211.788 395.414 209.357 395.608 206.565 397.052L206.396 397.734C210.254 399.298 219.349 398.055 224.265 398.919C218.798 399.254 207.988 398.841 203.475 399.803Z"/><path fill="#322F31" d="M223.615 393.3C227.971 393.356 233.647 393.259 237.891 393.535C238.771 394.071 239.996 394.875 240.871 395.336C233.987 396.051 222.296 395.155 214.889 394.922C218.697 394.011 220.247 395.53 223.615 393.3Z"/><path fill="#D2D1D1" d="M742.925 390.99C743.538 390.196 744.749 388.716 745.811 388.107C756.601 381.914 766.93 375.146 777.517 368.756C778.346 368.255 779.489 368.891 780.231 369.209C783.413 373.695 777.797 380.309 774.729 383.272C773.245 384.488 771.632 385.486 771.074 387.253C771.059 398.924 814.052 393.246 816.769 404.644C816.176 405.817 816.023 405.85 815.069 406.79C815.601 408.701 816.174 408.757 818.112 410.076C818.97 412.834 817.833 415.067 814.903 415.803L811.951 416.332C811.324 418.598 811.357 418.885 809.852 420.584C809.354 420.897 807.251 422.951 806.694 423.478C802.675 422.527 795.485 420.479 791.662 420.511C780.585 420.604 767.633 423.484 757.196 417.483C753.765 415.353 747.315 413.193 743.085 413.314C725.774 413.952 707.113 417.704 690.222 421.314C673.777 424.828 668.619 428.729 652.001 422.554C636.995 416.977 627.307 410.746 615.115 400.478C616.252 396.498 629.258 380.471 632.287 374.492L633.091 372.517C642.362 379.877 653.951 389.01 665.199 392.793C676.235 396.505 726.855 393.047 740.567 391.463C741.392 391.368 742.131 391.25 742.925 390.99Z"/><path fill="#030303" d="M809.132 404.644C809.579 404.572 810.502 404.31 810.972 404.19L811.177 403.416C808.11 400.32 796.851 398.3 792.495 398.126C784.099 397.789 757.759 394.636 772.539 381.556L774.729 383.272C773.245 384.488 771.632 385.486 771.074 387.253C771.059 398.924 814.052 393.246 816.769 404.644C816.176 405.817 816.023 405.85 815.069 406.79C815.601 408.701 816.174 408.757 818.112 410.076C818.97 412.834 817.833 415.067 814.903 415.803C806.345 413.892 798.54 410.5 789.764 409.416C788.056 409.205 781.805 407.829 780.857 406.394C788.912 405.265 802.823 409.979 810.56 412.416C811.853 412.824 813.641 413.071 814.852 412.398C814.147 410.902 810.367 409.16 808.756 408.276C805.086 406.279 801.132 404.86 797.031 404.067C792.514 403.169 785.15 403.819 782.477 401.384L783.041 400.883C792.516 399.905 799.979 402.374 809.132 404.644Z"/><path fill="#252123" d="M742.925 390.99C743.538 390.196 744.749 388.716 745.811 388.107C756.601 381.914 766.93 375.146 777.517 368.756C778.346 368.255 779.489 368.891 780.231 369.209C783.413 373.695 777.797 380.309 774.729 383.272L772.539 381.556C775.577 378.247 776.955 377.127 778.224 372.747L778.034 371.798C775.858 372.302 771.416 375.679 769.342 376.915C764.541 379.775 747.697 390.959 742.925 390.99Z"/><path fill="#252123" d="M806.441 418.861L807.091 417.51L807.763 417.305C809.061 418.153 809.254 419.127 809.852 420.584C809.354 420.897 807.251 422.951 806.694 423.478C802.675 422.527 795.485 420.479 791.662 420.511C780.585 420.604 767.633 423.484 757.196 417.483C763.213 417.558 768.707 419.045 774.588 419.252C780.292 419.453 787.535 418.006 793.109 418.295C797.022 418.498 801.465 420.197 805.751 419.963C806.444 419.205 806.274 419.604 806.441 418.861Z"/><path fill="#030303" d="M806.441 418.861C796.847 414.295 786.244 416.199 780.73 414.215L780.496 413.32L781.482 412.627C784.662 412.559 809.042 415.446 811.951 416.332C811.324 418.598 811.357 418.885 809.852 420.584C809.254 419.127 809.061 418.153 807.763 417.305L807.091 417.51L806.441 418.861Z"/><path fill="#D2D1D1" d="M520.859 761.429C527.949 762.253 548.45 763.118 555.118 761.256C551.973 780.557 540.536 837.09 545.049 853.74C546.594 855.494 546.34 854.554 546.269 856.522C544.926 858.634 542.26 859.467 539.931 860.398C530.332 863.995 495.809 862.478 483.992 863.008C480.66 863.009 460.062 861.58 458.961 858.73C453.572 844.768 489.232 844.644 495.927 842.324C505.792 838.907 510.326 838.423 517.822 834.421L518.432 834.092C521.039 829.829 520.466 806.222 520.489 800.15L520.859 761.429Z"/><path fill="#252123" d="M539.931 860.398C530.332 863.995 495.809 862.478 483.992 863.008C480.66 863.009 460.062 861.58 458.961 858.73C453.572 844.768 489.232 844.644 495.927 842.324C505.792 838.907 510.326 838.423 517.822 834.421L518.432 834.092C516.003 847.781 468.854 844.188 473.496 857.63C480.164 862.954 521.914 858.948 532.19 858.678C534.184 858.626 538.68 857.466 540.575 856.702C540.243 857.668 539.96 858.457 539.569 859.4L539.931 860.398Z"/><path fill="#D2D1D1" d="M472.664 848.496C473.289 848.466 474.062 848.501 474.7 848.511C474.044 849.823 473.209 850.099 472.237 851.31C470.785 853.117 469.861 856.328 469.139 858.575C467.838 859.271 466.308 858.98 464.759 858.906C462.52 858.02 461.806 858.005 461.574 855.525C463.346 851.742 468.899 849.933 472.664 848.496Z"/><path fill="#030303" d="M545.049 853.74C546.594 855.494 546.34 854.554 546.269 856.522C544.926 858.634 542.26 859.467 539.931 860.398L539.569 859.4C539.96 858.457 540.243 857.668 540.575 856.702L545.049 853.74Z"/><path fill="#D2D1D1" fill-opacity="0.58823532" d="M442.171 646.96L441.365 646.41L441.172 644.821L440.714 644.544L440.331 645.782C437.809 645.878 431.783 646.211 429.66 645.324C430.646 643.902 431.452 643.796 432.947 642.972C434.161 640.94 434.324 640.715 434.965 638.478L434.523 638.259C433.851 639.292 433.807 639.419 432.925 640.257L432.473 639.666C432.495 635.704 436.438 628.411 438.673 625.252L439.81 625.415L439.06 625.041C440.116 625.57 440.223 625.99 440.783 627.007L441.235 626.048C440.893 624.698 440.642 624.175 440.797 622.798L441.347 622.713L441.36 624.019L442.153 623.527C442.451 622.842 445.247 615.868 444.891 616.065C449.446 613.545 456.703 618.889 461.666 618.642C466.989 618.376 475.938 623.432 480.728 621.635C481.956 621.951 483.188 622.252 484.423 622.537C492.976 624.098 499.887 624.35 508.559 623.682C517.281 629.125 525.099 653.118 527.675 663.232C528.842 667.813 532.426 685.717 524.781 687.62C523.922 687.834 523.547 687.816 522.775 687.477C519.773 683.727 518.565 678.807 516.22 674.433C512.858 668.162 507.871 657.32 502.132 653.011C500.709 651.942 496.342 651.273 494.52 651.077C493.229 650.934 491.934 650.827 490.636 650.757C474.543 649.207 458.331 648.302 442.171 646.96Z"/><path fill="#D2D1D1" fill-opacity="0.38039216" d="M441.407 614.304L441.886 614.429C442.598 612.943 442.076 613.51 443.526 612.684C445.419 612.514 477.86 620.431 480.728 621.635C475.938 623.432 466.989 618.376 461.666 618.642C456.703 618.889 449.446 613.545 444.891 616.065C445.247 615.868 442.451 622.842 442.153 623.527L441.36 624.019L441.347 622.713L440.797 622.798C440.642 624.175 440.893 624.698 441.235 626.048L440.783 627.007C440.223 625.99 440.116 625.57 439.06 625.041L439.81 625.415L438.673 625.252C436.438 628.411 432.495 635.704 432.473 639.666L432.925 640.257C433.807 639.419 433.851 639.292 434.523 638.259L434.965 638.478C434.324 640.715 434.161 640.94 432.947 642.972C431.452 643.796 430.646 643.902 429.66 645.324C431.783 646.211 437.809 645.878 440.331 645.782L440.714 644.544L441.172 644.821L441.365 646.41L442.171 646.96C438.436 646.937 433.439 646.78 429.755 645.972C428.25 645.642 428.162 645.048 427.451 643.896C434.207 631.773 436.091 626.785 441.407 614.304Z"/><path fill="#252123" d="M832.156 372.158C835.812 371.894 845.171 372.085 846.876 375.927L846.325 376.88C842.112 379.108 838.745 378.134 834.097 377.699C829.331 378.153 826.021 379.749 822.012 379.95C820.57 379.146 821.153 379.72 820.455 377.948C821.225 373.066 827.982 372.786 832.156 372.158Z"/><path fill="#252123" d="M200.437 332.243C201.315 332.382 203.342 332.606 203.713 333.474C206.475 339.937 211.972 346.348 214.984 352.343C214.833 354.311 214.873 353.699 213.337 355.53C207.204 354.042 200.555 341.348 198.885 335.555C198.427 333.967 199.494 333.292 200.437 332.243Z"/><path fill="#252123" d="M230.851 322.756C232.68 323.014 234.13 322.996 235.426 324.258C235.848 326.958 233.558 334.126 233.281 337.483C233.018 340.666 233.345 344.481 231.537 347.003L229.409 346.744C224.06 342.78 228.933 328.031 230.851 322.756Z"/><path fill="#252123" d="M179.441 363.731C179.836 363.783 181.159 363.961 181.469 364.149C184.873 366.212 198.186 370.293 199.576 373.214C199.283 374.925 199.039 374.966 197.885 376.247C193.105 375.741 178.811 372.171 177.382 367.009C177.916 364.814 177.679 365.545 179.441 363.731Z"/><path fill="#A6A5A5" d="M591.156 162.137L593.038 162.915C597.376 168.379 591.458 181.68 587.934 186.703C587.357 187.382 587.402 187.235 586.594 187.716L586.057 186.89C585.606 181.763 588.568 166.436 591.156 162.137Z"/><path fill="#252123" d="M194.629 417.366C195.616 417.734 195.823 418.126 196.677 418.916C198.134 425.057 182.184 428.485 178.027 429.147C176.448 428.233 176.075 427.897 175.699 426.097C177.117 421.645 184.211 422.326 188.496 420.499C190.983 419.438 192.299 418.698 194.629 417.366Z"/><path fill="#252123" d="M817.691 346.872C818.356 346.814 818.769 347 819.471 347.165C820.693 348.444 820.28 347.697 820.611 349.558C819.667 353.002 811.046 359.578 808.185 363.771C807.798 363.903 807.283 363.821 806.819 363.804C805.305 362.548 805.788 363.314 805.279 361.452C807.027 354.556 812.136 350.725 817.691 346.872Z"/><path fill="#252123" d="M824.473 428.962C829.565 428.874 837.8 432.335 839.448 437.498C839.393 439.259 838.954 439.657 837.999 441.127C834.409 440.582 826.076 435.202 823.859 432.393C823.565 430.418 823.642 431.053 824.473 428.962Z"/><path fill="#252123" d="M790.779 334.769C792.785 335.167 793.344 335.066 794.597 336.366C794.869 339.017 792.088 350.782 790.87 353.544C788.7 353.677 789.572 353.979 787.974 353.125C785.335 348.995 787.765 338.342 790.779 334.769Z"/><path fill="#252123" d="M199.507 401.557C200.098 402.092 201.185 403.225 201.834 403.437L204.588 403.955C205.045 404.893 205.066 404.855 205.716 405.578L205.688 406.467L205.309 407.821C206.84 409.616 209.833 409.407 212.241 409.99C210.645 410.251 208.901 410.299 207.73 411.241C203.72 411.371 199.298 407.96 198.065 404.24C198.448 402.283 198.056 403.181 199.507 401.557Z"/></svg>